<?xml version="1.0" encoding="UTF-8" standalone="no"?>
<svg
   xmlns:dc="http://purl.org/dc/elements/1.1/"
   xmlns:cc="http://creativecommons.org/ns#"
   xmlns:rdf="http://www.w3.org/1999/02/22-rdf-syntax-ns#"
   xmlns:svg="http://www.w3.org/2000/svg"
   xmlns="http://www.w3.org/2000/svg"
   xmlns:xlink="http://www.w3.org/1999/xlink"
   xmlns:sodipodi="http://sodipodi.sourceforge.net/DTD/sodipodi-0.dtd"
   xmlns:inkscape="http://www.inkscape.org/namespaces/inkscape"
   height="308.15848pt"
   version="1.1"
   viewBox="0 0 428.40964 308.15848"
   width="428.40964pt"
   id="svg766"
   sodipodi:docname="teammate_population.svg"
   inkscape:version="1.0.1 (0767f8302a, 2020-10-17)">
  <sodipodi:namedview
     pagecolor="#ffffff"
     bordercolor="#666666"
     borderopacity="1"
     objecttolerance="10"
     gridtolerance="10"
     guidetolerance="10"
     inkscape:pageopacity="0"
     inkscape:pageshadow="2"
     inkscape:window-width="2560"
     inkscape:window-height="1383"
     id="namedview768"
     showgrid="false"
     fit-margin-top="0"
     fit-margin-left="0"
     fit-margin-right="0"
     fit-margin-bottom="0"
     inkscape:zoom="1.5615275"
     inkscape:cx="223.91499"
     inkscape:cy="129.21621"
     inkscape:window-x="0"
     inkscape:window-y="27"
     inkscape:window-maximized="1"
     inkscape:current-layer="svg766" />
  <metadata
     id="metadata2">
    <rdf:RDF>
      <cc:Work>
        <dc:type
           rdf:resource="http://purl.org/dc/dcmitype/StillImage" />
        <dc:date>2021-02-02T13:56:06.904657</dc:date>
        <dc:format>image/svg+xml</dc:format>
        <dc:creator>
          <cc:Agent>
            <dc:title>Matplotlib v3.3.3, https://matplotlib.org/</dc:title>
          </cc:Agent>
        </dc:creator>
        <dc:title></dc:title>
      </cc:Work>
    </rdf:RDF>
  </metadata>
  <defs
     id="defs6">
    <style
       type="text/css"
       id="style4">*{stroke-linecap:butt;stroke-linejoin:round;}</style>
    <defs
       id="defs550">
      <path
         d="m 54,-36 v -10.669056 h 0.6696 l 0.6696,-1.4496 0.6696,-0.05798 0.6696,-0.463872 0.6696,1.275648 0.6696,-0.260928 0.6696,-1.391616 0.6696,2.261376 0.6696,-3.04416 0.6696,-2.261376 0.6696,1.768512 0.6696,1.623552 0.6696,-0.492864 0.6696,-0.927744 0.6696,-3.276096 0.6696,-2.348352 0.6696,3.76896 0.6696,-3.508032 0.6696,1.15968 0.6696,-0.173952 0.6696,-2.60928 0.6696,0.898752 0.6696,-0.927744 0.6696,-1.15968 0.6696,2.75424 0.6696,-0.43488 0.6696,-1.101696 0.6696,-0.260928 0.6696,-2.493312 0.6696,-0.115968 0.6696,0.753792 0.6696,1.391616 0.6696,-3.247104 0.6696,0.05798 0.6696,0.550848 0.6696,1.217664 0.6696,-4.20384 0.6696,-1.246656 0.6696,2.1744 0.6696,-0.492864 0.6696,-1.072704 0.6696,2.31936 0.6696,-0.173952 0.6696,-0.985728 0.6696,0.08698 0.6696,-1.072704 0.6696,-0.463872 0.6696,-0.753792 0.6696,1.855488 0.6696,-0.202944 0.6696,-3.18912 0.6696,2.058432 0.6696,-2.348352 0.6696,-2.870208 0.6696,2.841216 0.6696,0.550848 0.6696,-2.46432 0.6696,-2.31936 0.6696,2.725248 0.6696,-5.769408 0.6696,4.319808 0.6696,0.260928 0.6696,0.376896 0.6696,-3.884928 0.6696,0.927744 0.6696,-4.406784 0.6696,1.188672 0.6696,-1.333632 0.6696,0.02899 0.6696,0.608832 0.6696,-7.305984 0.6696,0.956736 0.6696,5.131584 0.6696,-2.46432 0.6696,-1.623552 0.6696,-1.59456 0.6696,-1.681536 0.6696,-1.971456 0.6696,4.087872 0.6696,-8.55264 0.6696,3.508032 0.6696,-4.261824 0.6696,3.305088 0.6696,-3.537024 0.6696,-1.855488 0.6696,-1.333632 0.6696,2.841216 0.6696,-5.595456 0.6696,-0.753792 0.6696,-2.377348 0.6696,1.39162 0.6696,2.725248 0.6696,-1.768512 0.6696,-1.449606 0.6696,-3.76896 0.6696,-0.78278 0.6696,2.34835 0.6696,-11.33587 0.6696,2.31936 0.6696,1.85549 0.6696,-1.94247 0.6696,1.65255 0.6696,-5.91437 0.6696,-8.3207 0.6696,4.81267 0.6696,-1.56557 0.6696,0.69581 0.6696,-1.50759 0.6696,0.57984 0.6696,-1.94246 0.6696,-3.9719 0.6696,2.58028 0.6696,1.07271 0.6696,-4.60973 0.6696,-4.26182 0.6696,0.28992 0.6696,-4.46477 0.6696,5.18957 0.6696,-4.98663 0.6696,-7.9728 0.6696,8.72659 0.6696,-3.33408 0.6696,3.68199 0.6696,-3.85594 0.6696,0.029 0.6696,-2.72524 0.6696,5.21856 0.6696,-6.66816 0.6696,3.45004 0.6696,-7.79884 0.6696,0.78278 0.6696,-2.49331 0.6696,6.00134 0.6696,-11.10393 0.6696,1.33363 0.6696,1.4496 0.6696,4.95763 0.6696,1.59456 0.6696,-4.58074 0.6696,-8.14675 0.6696,2.52231 0.6696,-3.50804 0.6696,0.92775 0.6696,-0.78279 0.6696,-2.58028 0.6696,4.63872 0.6696,7.39296 0.6696,-8.7266 0.6696,-0.7248 0.6696,4.98663 0.6696,-0.43488 0.6696,-9.04551 0.6696,9.53837 0.6696,-0.14496 0.6696,-8.95853 0.6696,4.7257 0.6696,-0.40589 0.6696,1.50759 0.6696,-4.78368 0.6696,-6.92909 0.6696,4.3488 0.6696,0.28992 0.6696,-2.00045 0.6696,4.43578 0.6696,-8.78458 0.6696,5.18957 0.6696,1.94246 0.6696,-5.71142 0.6696,-9.19047 0.6696,1.59456 0.6696,6.34925 0.6696,-7.36397 0.6696,5.53748 0.6696,-2.8992 0.6696,-4.46477 0.6696,7.62489 0.6696,-11.68377 0.6696,2.81222 0.6696,9.16147 0.6696,-7.76985 0.6696,-0.57984 0.6696,-3.71098 0.6696,-1.30464 0.6696,6.87111 0.6696,-1.1017 0.6696,4.63872 0.6696,-13.13338 0.6696,10.1762 0.6696,-1.56557 0.6696,3.39206 0.6696,-1.97145 0.6696,-2.43533 0.6696,3.94291 0.6696,3.73997 0.6696,2.20339 0.6696,-11.62579 0.6696,2.11641 0.6696,0.81178 0.6696,1.24666 0.6696,8.92953 0.6696,-11.36486 0.6696,-0.49287 0.6696,1.65255 0.6696,2.81222 0.6696,-7.07405 0.6696,9.16148 0.6696,0.43488 0.6696,-12.03168 0.6696,0.49286 0.6696,1.50758 0.6696,6.66816 0.6696,-4.3488 0.6696,-3.71097 0.6696,5.4215 0.6696,-0.20294 0.6696,-4.7257 0.6696,-0.087 0.6696,-0.087 0.6696,-2.31936 0.6696,8.78458 0.6696,-5.36352 0.6696,-2.98618 0.6696,2.34835 0.6696,0.52186 0.6696,-1.85549 0.6696,-2.92819 0.6696,0.60883 0.6696,8.08877 0.6696,-7.56691 0.6696,-0.84077 0.6696,-13.07539 0.6696,10.20518 0.6696,3.45005 0.6696,-6.34925 0.6696,1.21766 0.6696,-2.63827 0.6696,1.8265 0.6696,4.14585 0.6696,1.79751 0.6696,-6.00135 0.6696,2.81223 0.6696,-10.95898 0.6696,10.11821 0.6696,5.65344 0.6696,0.92774 0.6696,-13.22035 0.6696,2.75424 0.6696,-0.98573 0.6696,1.27565 0.6696,-2.46432 0.6696,1.53658 0.6696,4.81267 0.6696,-0.28992 0.6696,-5.27654 0.6696,-3.21812 0.6696,4.11687 0.6696,0.26093 0.6696,1.21766 0.6696,-1.50758 0.6696,-9.91527 0.6696,2.87021 0.6696,1.15968 0.6696,6.66816 0.6696,-4.37779 0.6696,-5.24755 0.6696,4.26182 0.6696,1.8265 0.6696,-10.08922 0.6696,5.85638 0.6696,-1.10169 0.6696,-0.49287 0.6696,11.27789 0.6696,-7.5959 0.6696,0.43488 0.6696,2.87021 0.6696,-8.63962 0.6696,-2.46432 0.6696,-1.71053 0.6696,2.1744 0.6696,-4.43577 0.6696,6.00134 0.6696,-0.43488 0.6696,-6.69715 0.6696,1.04371 0.6696,6.08832 0.6696,-4.17485 0.6696,-1.10169 0.6696,-4.69671 0.6696,7.39296 0.6696,-3.04416 0.6696,-3.50803 0.6696,2.26138 0.6696,-2.95719 0.6696,8.32071 0.6696,-4.7257 0.6696,0.75379 0.6696,3.39207 0.6696,-4.0009 0.6696,-1.62355 V -36 v 0 h -0.6696 -0.6696 -0.6696 -0.6696 -0.6696 -0.6696 -0.6696 -0.6696 -0.6696 -0.6696 -0.6696 -0.6696 -0.6696 -0.6696 -0.6696 -0.6696 -0.6696 -0.6696 -0.6696 -0.6696 -0.6696 -0.6696 -0.6696 -0.6696 -0.6696 -0.6696 -0.6696 -0.6696 -0.6696 -0.6696 -0.6696 -0.6696 -0.6696 -0.6696 -0.6696 -0.6696 -0.6696 -0.6696 -0.6696 -0.6696 -0.6696 -0.6696 -0.6696 -0.6696 -0.6696 -0.6696 -0.6696 -0.6696 -0.6696 -0.6696 -0.6696 -0.6696 -0.6696 -0.6696 -0.6696 -0.6696 -0.6696 -0.6696 -0.6696 -0.6696 -0.6696 -0.6696 -0.6696 -0.6696 -0.6696 -0.6696 -0.6696 -0.6696 -0.6696 -0.6696 -0.6696 -0.6696 -0.6696 -0.6696 -0.6696 -0.6696 -0.6696 -0.6696 -0.6696 -0.6696 -0.6696 -0.6696 -0.6696 -0.6696 -0.6696 -0.6696 -0.6696 -0.6696 -0.6696 -0.6696 -0.6696 -0.6696 -0.6696 -0.6696 -0.6696 -0.6696 -0.6696 -0.6696 -0.6696 -0.6696 -0.6696 -0.6696 -0.6696 -0.6696 -0.6696 -0.6696 -0.6696 -0.6696 -0.6696 -0.6696 -0.6696 -0.6696 -0.6696 -0.6696 -0.6696 -0.6696 -0.6696 -0.6696 -0.6696 -0.6696 -0.6696 -0.6696 -0.6696 -0.6696 -0.6696 -0.6696 -0.6696 -0.6696 -0.6696 -0.6696 -0.6696 -0.6696 -0.6696 -0.6696 -0.6696 -0.6696 -0.6696 -0.6696 -0.6696 -0.6696 -0.6696 -0.6696 -0.6696 -0.6696 -0.6696 -0.6696 -0.6696 -0.6696 -0.6696 -0.6696 -0.6696 -0.6696 -0.6696 -0.6696 -0.6696 -0.6696 -0.6696 -0.6696 -0.6696 -0.6696 -0.6696 -0.6696 -0.6696 -0.6696 -0.6696 -0.6696 -0.6696 -0.6696 -0.6696 -0.6696 -0.6696 -0.6696 -0.6696 -0.6696 -0.6696 -0.6696 -0.6696 -0.6696 -0.6696 -0.6696 -0.6696 -0.6696 -0.6696 -0.6696 -0.6696 -0.6696 -0.6696 -0.6696 -0.6696 -0.6696 -0.6696 -0.6696 -0.6696 -0.6696 -0.6696 -0.6696 -0.6696 -0.6696 -0.6696 -0.6696 -0.6696 -0.6696 -0.6696 -0.6696 -0.6696 -0.6696 -0.6696 -0.6696 -0.6696 -0.6696 -0.6696 -0.6696 -0.6696 -0.6696 -0.6696 -0.6696 -0.6696 -0.6696 -0.6696 -0.6696 -0.6696 -0.6696 -0.6696 -0.6696 -0.6696 -0.6696 -0.6696 -0.6696 -0.6696 -0.6696 H 99.5328 98.8632 98.1936 97.524 96.8544 96.1848 95.5152 94.8456 94.176 93.5064 92.8368 92.1672 91.4976 90.828 90.1584 89.4888 88.8192 88.1496 87.48 86.8104 86.1408 85.4712 84.8016 84.132 83.4624 82.7928 82.1232 81.4536 80.784 80.1144 79.4448 78.7752 78.1056 77.436 76.7664 76.0968 75.4272 74.7576 74.088 73.4184 72.7488 72.0792 71.4096 70.74 70.0704 69.4008 68.7312 68.0616 67.392 66.7224 66.0528 65.3832 64.7136 64.044 63.3744 62.7048 62.0352 61.3656 60.696 60.0264 59.3568 58.6872 58.0176 57.348 56.6784 56.0088 55.3392 54.6696 Z"
         id="me17b2a4064"
         style="stroke:#db5f57;stroke-opacity:0.5" />
    </defs>
    <defs
       id="defs558">
      <path
         d="m 372.06,-36 v -199.17504 l 0.6696,2.02944 0.6696,0.058 0.6696,-3.30508 0.6696,5.0446 0.6696,-0.81177 0.6696,-0.17395 0.6696,-6.9001 0.6696,10.17619 0.6696,1.8265 0.6696,-12.98842 0.6696,6.11731 0.6696,-2.66726 0.6696,-4.11686 0.6696,13.45228 0.6696,-11.24889 0.6696,3.59501 0.6696,2.55129 0.6696,-6.69715 0.6696,8.3207 0.6696,0.28992 0.6696,-6.40723 0.6696,1.50759 0.6696,13.30732 0.6696,-8.52364 V -36 v 0 h -0.6696 -0.6696 -0.6696 -0.6696 -0.6696 -0.6696 -0.6696 -0.6696 -0.6696 -0.6696 -0.6696 -0.6696 -0.6696 -0.6696 -0.6696 -0.6696 -0.6696 -0.6696 -0.6696 -0.6696 -0.6696 -0.6696 -0.6696 z"
         id="m8e9a3b47b0"
         style="stroke:#5770db;stroke-opacity:0.5" />
    </defs>
  </defs>
  <path
     d="M 56.046915,235.90326 H 390.84691 V 18.463263 H 56.046915 Z"
     style="fill:#ffffff"
     id="path11" />
  <g
     id="line2d_1"
     transform="translate(2.0469146,-16.096737)">
    <defs
       id="defs15">
      <path
         d="M 0,0 V 3.5"
         id="m1270be45fc"
         style="stroke:#262626;stroke-width:0.8" />
    </defs>
    <g
       id="g19">
      <use
         style="fill:#262626;stroke:#262626;stroke-width:0.8"
         x="54"
         xlink:href="#m1270be45fc"
         y="252"
         id="use17"
         width="100%"
         height="100%" />
    </g>
  </g>
  <g
     id="text_1"
     transform="translate(2.0469146,-16.096737)">
    <!-- $\mathdefault{0}$ -->
    <g
       style="fill:#262626"
       transform="matrix(0.13,0,0,-0.13,50.82963,267.99403)"
       id="g27">
      <defs
         id="defs23">
        <path
           d="M 42,31.640625 C 42,37.75 41.90625,48.125 37.703125,56.109375 34,63.109375 28.09375,65.59375 22.90625,65.59375 18.09375,65.59375 12,63.40625 8.203125,56.203125 4.203125,48.71875 3.796875,39.4375 3.796875,31.640625 3.796875,25.953125 3.90625,17.28125 7,9.671875 11.296875,-0.609375 19,-2 22.90625,-2 27.5,-2 34.5,-0.109375 38.59375,9.375 41.59375,16.28125 42,24.359375 42,31.640625 Z M 22.90625,-0.40625 c -6.40625,0 -10.203125,5.484375 -11.609375,13.09375 -1.09375,5.875 -1.09375,14.46875 -1.09375,20.0625 0,7.6875 0,14.078125 1.296875,20.171875 C 13.40625,61.390625 19,64 22.90625,64 27,64 32.296875,61.296875 34.203125,53.125 35.5,47.4375 35.59375,40.734375 35.59375,32.75 c 0,-6.5 0,-14.484375 -1.1875,-20.375 -2.109375,-10.890625 -8,-12.78125 -11.5,-12.78125 z"
           id="CMR17-48" />
      </defs>
      <use
         transform="scale(0.996264)"
         xlink:href="#CMR17-48"
         id="use25"
         x="0"
         y="0"
         width="100%"
         height="100%" />
    </g>
  </g>
  <g
     id="line2d_13"
     transform="translate(2.0469146,-16.096737)">
    <g
       id="g202">
      <use
         style="fill:#262626;stroke:#262626;stroke-width:0.8"
         x="254.88"
         xlink:href="#m1270be45fc"
         y="252"
         id="use200"
         width="100%"
         height="100%" />
    </g>
  </g>
  <g
     id="text_13"
     transform="translate(2.0469146,-16.096737)">
    <!-- $\mathdefault{300}$ -->
    <g
       style="fill:#262626"
       transform="matrix(0.13,0,0,-0.13,245.36889,267.99403)"
       id="g214">
      <defs
         id="defs206">
        <path
           d="M 22.09375,33.703125 C 31,33.703125 34.90625,25.96875 34.90625,17.03125 34.90625,5 28.5,0.390625 22.703125,0.390625 c -5.296875,0 -13.90625,2.640625 -16.609375,10.4375 0.5,-0.203125 1,-0.203125 1.5,-0.203125 2.40625,0 4.203125,1.59375 4.203125,4.1875 C 11.796875,17.703125 9.59375,19 7.59375,19 5.90625,19 3.296875,18.203125 3.296875,14.46875 3.296875,5.234375 12.296875,-2 22.90625,-2 34,-2 42.5,6.71875 42.5,16.953125 c 0,9.71875 -8,16.75 -17.5,17.84375 C 32.59375,36.375 39.90625,43.0625 39.90625,52.015625 39.90625,59.6875 32,65.296875 23,65.296875 c -9.09375,0 -17.09375,-5.46875 -17.09375,-13.28125 C 5.90625,48.59375 8.5,48 9.796875,48 c 2.109375,0 3.90625,1.296875 3.90625,3.890625 0,2.578125 -1.796875,3.875 -3.90625,3.875 -0.390625,0 -0.890625,0 -1.296875,-0.1875 C 11.40625,61.859375 19.296875,63 22.796875,63 c 3.5,0 10.109375,-1.671875 10.109375,-11.125 0,-2.765625 -0.40625,-7.6875 -3.8125,-12.03125 C 26.09375,36 22.703125,36 19.40625,35.6875 c -0.5,0 -2.8125,-0.234375 -3.203125,-0.234375 C 15.5,35.359375 15.09375,35.265625 15.09375,34.5 c 0,-0.703125 0.109375,-0.796875 2.109375,-0.796875 z"
           id="CMR17-51" />
      </defs>
      <use
         transform="scale(0.996264)"
         xlink:href="#CMR17-51"
         id="use208"
         x="0"
         y="0"
         width="100%"
         height="100%" />
      <use
         transform="matrix(0.996264,0,0,0.996264,45.690477,0)"
         xlink:href="#CMR17-48"
         id="use210"
         x="0"
         y="0"
         width="100%"
         height="100%" />
      <use
         transform="matrix(0.996264,0,0,0.996264,91.380954,0)"
         xlink:href="#CMR17-48"
         id="use212"
         x="0"
         y="0"
         width="100%"
         height="100%" />
    </g>
  </g>
  <g
     id="line2d_20"
     transform="translate(2.0469146,-16.096737)">
    <g
       id="g313">
      <use
         style="fill:#262626;stroke:#262626;stroke-width:0.8"
         x="372.06"
         xlink:href="#m1270be45fc"
         y="252"
         id="use311"
         width="100%"
         height="100%" />
    </g>
  </g>
  <g
     id="text_20"
     transform="translate(-0.31975376,-16.005673)">
    <!-- $\mathdefault{475}$ -->
    <g
       style="fill:#262626"
       transform="matrix(0.13,0,0,-0.13,362.54889,267.99403)"
       id="g322">
      <path
         d="m 33.468244,64.165628 c 0,2.085928 -0.0934,2.085928 -1.883562,2.085928 L 1.992528,19.520548 v -2.58406 H 27.693026 V 7.1139476 C 27.693026,3.486924 27.49066,2.49066 20.516812,2.49066 H 18.63325 V 0 c 3.191158,0 8.561644,0 11.955168,0 3.377958,0 8.76401,0 11.955168,0 v 2.49066 h -1.899128 c -6.973848,0 -7.176214,0.996264 -7.176214,4.6232876 V 16.936488 H 43.63325 v 2.58406 H 33.468244 Z M 27.988792,57.643212 V 19.520548 H 3.985056 Z"
         id="use316"
         style="stroke-width:0.996264" />
      <path
         d="m 90.615757,61.348069 v 2.179328 H 67.203553 c -11.643836,0 -11.846202,1.307596 -12.250934,3.222291 h -1.790162 l -2.895392,-18.58655 h 1.805728 c 0.295766,1.883561 0.996264,6.942715 2.179328,8.826276 0.607098,0.793898 7.970112,0.793898 9.666874,0.793898 H 85.836803 L 74.784499,41.422789 c -7.37858,-11.005604 -12.4533,-25.871731 -12.4533,-38.8542959 0,-1.1830635 0,-4.5610211 3.580324,-4.5610211 3.59589,0 3.59589,3.3779576 3.59589,4.6544209 v 4.5765877 c 0,16.2359904 2.786426,26.9458274 7.363014,33.7951434 z"
         id="use318"
         style="stroke-width:0.996264" />
      <path
         d="m 102.74459,57.47198 c 0.99626,-0.404733 5.07472,-1.681196 9.26214,-1.681196 9.26214,0 14.33686,5.090286 17.23226,8.032379 0,0.887297 0,1.432129 -0.59154,1.432129 -0.10896,0 -0.31133,0 -1.10523,-0.451432 -3.48692,-1.634496 -7.56538,-2.957659 -12.5467,-2.957659 -2.98879,0 -7.47198,0.404732 -12.3599,2.58406 -1.08966,0.498132 -1.29203,0.498132 -1.38543,0.498132 -0.49813,0 -0.60709,-0.108966 -0.60709,-2.085928 v -28.54919 c 0,-1.774595 0,-2.272727 0.99626,-2.272727 0.49813,0 0.7005,0.202366 1.19863,0.887297 3.19116,4.467622 7.56538,6.351183 12.5467,6.351183 3.48692,0 10.9589,-2.179327 10.9589,-19.193648 0,-3.175592 0,-8.935243 -2.98879,-13.5118309 -2.49066,-4.0784557 -6.36675,-6.16438347 -10.64757,-6.16438347 -6.58468,0 -13.262764,4.59215437 -15.052926,12.28206737 0.404732,-0.108967 1.19863,-0.295766 1.603362,-0.295766 1.292034,0 3.782694,0.700498 3.782694,3.78269 0,2.677459 -1.89913,3.767123 -3.782694,3.767123 -2.30386,0 -3.798256,-1.400996 -3.798256,-4.187422 0,-8.6706103 6.88045,-17.730386 17.43462,-17.730386 10.27397,0 20.03425,8.841843 20.03425,21.668742 0,11.924035 -7.76775,21.17061 -17.43462,21.17061 -5.09029,0 -9.37111,-1.883562 -12.74907,-5.448319 z"
         id="use320"
         style="stroke-width:0.996264" />
    </g>
  </g>
  <g
     id="line2d_21"
     transform="translate(2.0469146,-16.096737)">
    <g
       id="g328">
      <use
         style="fill:#262626;stroke:#262626;stroke-width:0.8"
         x="388.79999"
         xlink:href="#m1270be45fc"
         y="252"
         id="use326"
         width="100%"
         height="100%" />
    </g>
  </g>
  <g
     id="text_21"
     transform="translate(2.0469146,-16.096737)">
    <!-- $\mathdefault{500}$ -->
    <g
       style="fill:#262626"
       transform="matrix(0.13,0,0,-0.13,379.28889,267.99403)"
       id="g337">
      <path
         d="m 11.363636,57.47198 c 0.996264,-0.404733 5.07472,-1.681196 9.262142,-1.681196 9.262142,0 14.336862,5.090286 17.232254,8.032379 0,0.887297 0,1.432129 -0.591532,1.432129 -0.108966,0 -0.311332,0 -1.10523,-0.451432 -3.486924,-1.634496 -7.56538,-2.957659 -12.5467,-2.957659 -2.988792,0 -7.47198,0.404732 -12.3599,2.58406 -1.089664,0.498132 -1.29203,0.498132 -1.3854297,0.498132 -0.498132,0 -0.6070984,-0.108966 -0.6070984,-2.085928 v -28.54919 c 0,-1.774595 0,-2.272727 0.9962641,-2.272727 0.498132,0 0.700498,0.202366 1.19863,0.887297 3.191158,4.467622 7.56538,6.351183 12.5467,6.351183 3.486924,0 10.958904,-2.179327 10.958904,-19.193648 0,-3.175592 0,-8.935243 -2.988792,-13.5118309 -2.49066,-4.0784557 -6.36675,-6.16438347 -10.647572,-6.16438347 -6.584682,0 -13.2627642,4.59215437 -15.0529261,12.28206737 0.4047322,-0.108967 1.1986301,-0.295766 1.6033624,-0.295766 1.2920298,0 3.7826897,0.700498 3.7826897,3.78269 0,2.677459 -1.8991281,3.767123 -3.7826897,3.767123 -2.3038606,0 -3.7982566,-1.400996 -3.7982566,-4.187422 0,-8.6706103 6.8804483,-17.730386 17.4346203,-17.730386 10.273972,0 20.034246,8.841843 20.034246,21.668742 0,11.924035 -7.767746,21.17061 -17.43462,21.17061 -5.090286,0 -9.371108,-1.883562 -12.749066,-5.448319 z"
         id="use331"
         style="stroke-width:0.996264" />
      <use
         transform="matrix(0.996264,0,0,0.996264,45.690477,0)"
         xlink:href="#CMR17-48"
         id="use333"
         x="0"
         y="0"
         width="100%"
         height="100%" />
      <use
         transform="matrix(0.996264,0,0,0.996264,91.380954,0)"
         xlink:href="#CMR17-48"
         id="use335"
         x="0"
         y="0"
         width="100%"
         height="100%" />
    </g>
  </g>
  <g
     id="text_22"
     transform="translate(2.0469146,-16.096737)">
    <!-- \textbf{Train Iteration} -->
    <g
       style="fill:#262626"
       transform="matrix(0.18,0,0,-0.18,155.75554,286.96564)"
       id="g380">
      <defs
         id="defs350">
        <path
           d="M 72,67.265625 H 6.09375 l -2,-23.5625 H 8.296875 C 9.203125,54.546875 10,63 24.40625,63 H 32.5 V 4.171875 H 17.40625 V 0 c 8,0 18.296875,0 21.6875,0 6.109375,0 13.703125,0 21.703125,0 V 4.171875 H 45.703125 V 63 h 8 C 68.09375,63 68.90625,54.640625 69.796875,43.703125 H 74 Z"
           id="CMBX12-84" />
        <path
           d="M 20.796875,22.046875 C 20.796875,25.296875 21.5,41 33.203125,41 31.796875,39.921875 31.09375,38.25 31.09375,36.5 c 0,-4.015625 3.3125,-5.6875 5.8125,-5.6875 2.5,0 5.796875,1.671875 5.796875,5.703125 0,5.015625 -5.203125,7.765625 -10,7.765625 C 24.796875,44.28125 21.40625,37.515625 20,33.390625 H 19.90625 V 44 H 3.5 v -4.671875 c 6.203125,0 6.90625,0 6.90625,-3.859375 V 4.0625 H 3.5 V -0.203125 C 5.796875,0 13.296875,0 16.09375,0 19,0 27.09375,0 29.5,-0.203125 V 4.0625 h -8.703125 z"
           id="CMBX12-114" />
        <path
           d="m 46,29.65625 c 0,9.15625 -7.296875,15.328125 -21.40625,15.328125 -5.59375,0 -17.390625,0 -17.390625,-8.515625 0,-4.265625 3.203125,-6.078125 5.890625,-6.078125 3,0 5.90625,2.09375 5.90625,5.90625 0,1.90625 -0.703125,3.6875 -2.40625,4.796875 C 19.90625,42 22.296875,42 24.203125,42 31,42 35.09375,38.203125 35.09375,29.984375 v -4 C 19.296875,25.984375 3.40625,21.59375 3.40625,10.5625 3.40625,1.484375 15,-0.5 21.90625,-0.5 29.59375,-0.5 34.5,3.640625 36.5,7.96875 36.5,4.28125 36.5,0 46.59375,0 h 5.109375 c 2.09375,0 2.890625,0 2.890625,2.265625 0,2 -0.890625,2 -2.296875,2 C 46,4.265625 46,5.84375 46,8.15625 Z m -10.90625,-15.875 c 0,-9.234375 -8.390625,-11 -11.59375,-11 -4.90625,0 -9,3.3125 -9,7.9375 C 14.5,19.890625 25.296875,23 35.09375,23 Z"
           id="CMBX12-97" />
        <path
           d="M 22.296875,61.84375 C 22.296875,65.921875 19,69 15.09375,69 11,69 7.90625,65.625 7.90625,61.84375 c 0,-3.78125 3.09375,-7.15625 7.1875,-7.15625 3.90625,0 7.203125,3.078125 7.203125,7.15625 z M 4.703125,44 v -4.671875 c 5.890625,0 6.59375,0 6.59375,-3.859375 V 4.0625 H 4.40625 V -0.203125 C 6.703125,0 13.59375,0 16.296875,0 19.09375,0 25.5,0 27.90625,-0.203125 V 4.0625 H 21.703125 V 44 Z"
           id="CMBX12-105" />
        <path
           d="M 53.09375,30.0625 C 53.09375,39.453125 49,44.28125 38,44.28125 c -7.203125,0 -13.40625,-3.421875 -16.796875,-10.796875 H 21.09375 V 44 H 4.203125 v -4.671875 c 6.203125,0 6.890625,0 6.890625,-3.859375 V 4.0625 H 4.203125 V -0.203125 C 6.5,0 13.703125,0 16.5,0 19.296875,0 26.59375,0 28.90625,-0.203125 V 4.0625 H 22 V 25.109375 C 22,35.765625 30,41 36.40625,41 c 3.6875,0 5.796875,-2.359375 5.796875,-9.859375 V 4.0625 h -6.90625 V -0.203125 C 37.59375,0 44.796875,0 47.59375,0 50.40625,0 57.703125,0 60,-0.203125 V 4.0625 h -6.90625 z"
           id="CMBX12-110" />
        <path
           d="M 27.5,63.828125 H 38.703125 V 68 C 35.09375,68 25.09375,68 20.90625,68 16.703125,68 6.703125,68 3.09375,68 V 63.828125 H 14.296875 V 4.171875 H 3.09375 V 0 c 3.609375,0 13.609375,0 17.8125,0 4.1875,0 14.1875,0 17.796875,0 V 4.171875 H 27.5 Z"
           id="CMBX12-73" />
        <path
           d="M 21.09375,40 H 35.5 v 4.265625 H 21.09375 V 63 h -4.1875 C 16.796875,53.203125 12,43.375 2.09375,43.375 V 40 h 8.109375 V 12.328125 C 10.203125,1.78125 18.40625,-0.5 25.59375,-0.5 33,-0.5 37.40625,5.078125 37.40625,12.421875 v 5.28125 H 33.203125 V 12.53125 c 0,-6.578125 -3,-9.453125 -6.109375,-9.453125 -6,0 -6,6.671875 -6,8.953125 z"
           id="CMBX12-116" />
        <path
           d="m 45.203125,22 c 2.296875,0 2.890625,0 2.890625,2.484375 0,2.984375 -0.6875,10.40625 -5.296875,15.078125 C 38.59375,43.71875 33,45 27.203125,45 11.59375,45 3.09375,34.890625 3.09375,22.40625 3.09375,8.515625 13.40625,-0.5 28.5,-0.5 c 15.09375,0 19.59375,10.5 19.59375,12.1875 0,1.484375 -1.5,1.484375 -2.09375,1.484375 -1.59375,0 -1.703125,-0.296875 -2.296875,-1.578125 -2.609375,-6.4375 -9.203125,-8.515625 -14,-8.515625 -14.5,0 -14.609375,13.375 -14.609375,18.921875 z M 15.09375,24.890625 C 15.296875,28.9375 15.40625,32.8125 17.5,36.375 c 1.90625,3.171875 5.40625,5.34375 9.703125,5.34375 10.703125,0 11.59375,-11.890625 11.703125,-16.828125 z"
           id="CMBX12-101" />
        <path
           d="M 53,21.796875 C 53,35.1875 43.796875,45 28.09375,45 c -16.296875,0 -25,-10.3125 -25,-23.203125 C 3.09375,8.828125 12.296875,-0.5 28,-0.5 c 16.296875,0 25,9.8125 25,22.296875 z M 28.09375,3.078125 c -13,0 -13,11.59375 -13,19.71875 0,4.65625 0,9.609375 1.90625,13.1875 2.203125,3.953125 6.703125,5.734375 11,5.734375 5.703125,0 9.296875,-2.671875 11,-5.4375 2,-3.578125 2,-8.734375 2,-13.484375 C 41,14.5625 41,3.078125 28.09375,3.078125 Z"
           id="CMBX12-111" />
      </defs>
      <use
         transform="scale(0.996264)"
         xlink:href="#CMBX12-84"
         id="use352"
         x="0"
         y="0"
         width="100%"
         height="100%" />
      <use
         transform="matrix(0.996264,0,0,0.996264,68.608395,0)"
         xlink:href="#CMBX12-114"
         id="use354"
         x="0"
         y="0"
         width="100%"
         height="100%" />
      <use
         transform="matrix(0.996264,0,0,0.996264,114.3859,0)"
         xlink:href="#CMBX12-97"
         id="use356"
         x="0"
         y="0"
         width="100%"
         height="100%" />
      <use
         transform="matrix(0.996264,0,0,0.996264,168.86909,0)"
         xlink:href="#CMBX12-105"
         id="use358"
         x="0"
         y="0"
         width="100%"
         height="100%" />
      <use
         transform="matrix(0.996264,0,0,0.996264,200.00234,0)"
         xlink:href="#CMBX12-110"
         id="use360"
         x="0"
         y="0"
         width="100%"
         height="100%" />
      <use
         transform="matrix(0.996264,0,0,0.996264,299.62874,0)"
         xlink:href="#CMBX12-73"
         id="use362"
         x="0"
         y="0"
         width="100%"
         height="100%" />
      <use
         transform="matrix(0.996264,0,0,0.996264,341.37045,0)"
         xlink:href="#CMBX12-116"
         id="use364"
         x="0"
         y="0"
         width="100%"
         height="100%" />
      <use
         transform="matrix(0.996264,0,0,0.996264,384.957,0)"
         xlink:href="#CMBX12-101"
         id="use366"
         x="0"
         y="0"
         width="100%"
         height="100%" />
      <use
         transform="matrix(0.996264,0,0,0.996264,436.09627,0)"
         xlink:href="#CMBX12-114"
         id="use368"
         x="0"
         y="0"
         width="100%"
         height="100%" />
      <use
         transform="matrix(0.996264,0,0,0.996264,481.87378,0)"
         xlink:href="#CMBX12-97"
         id="use370"
         x="0"
         y="0"
         width="100%"
         height="100%" />
      <use
         transform="matrix(0.996264,0,0,0.996264,536.35696,0)"
         xlink:href="#CMBX12-116"
         id="use372"
         x="0"
         y="0"
         width="100%"
         height="100%" />
      <use
         transform="matrix(0.996264,0,0,0.996264,579.94351,0)"
         xlink:href="#CMBX12-105"
         id="use374"
         x="0"
         y="0"
         width="100%"
         height="100%" />
      <use
         transform="matrix(0.996264,0,0,0.996264,611.07676,0)"
         xlink:href="#CMBX12-111"
         id="use376"
         x="0"
         y="0"
         width="100%"
         height="100%" />
      <use
         transform="matrix(0.996264,0,0,0.996264,667.11661,0)"
         xlink:href="#CMBX12-110"
         id="use378"
         x="0"
         y="0"
         width="100%"
         height="100%" />
    </g>
  </g>
  <g
     id="ytick_1"
     transform="translate(2.0469146,-16.096737)">
    <g
       id="line2d_22">
      <defs
         id="defs385">
        <path
           d="M 0,0 H -3.5"
           id="m5cf742dbd0"
           style="stroke:#262626;stroke-width:0.8" />
      </defs>
      <g
         id="g389">
        <use
           style="fill:#262626;stroke:#262626;stroke-width:0.8"
           x="54"
           xlink:href="#m5cf742dbd0"
           y="252"
           id="use387"
           width="100%"
           height="100%" />
      </g>
    </g>
    <g
       id="text_23">
      <!-- $\mathdefault{−100}$ -->
      <g
         style="fill:#262626"
         transform="matrix(0.13,0,0,-0.13,17.904412,256.49701)"
         id="g403">
        <defs
           id="defs393">
          <path
             d="m 65.90625,23 c 1.6875,0 3.5,0 3.5,2 0,2 -1.8125,2 -3.5,2 H 11.796875 c -1.703125,0 -3.5,0 -3.5,-2 0,-2 1.796875,-2 3.5,-2 z"
             id="CMSY10-0" />
        </defs>
        <use
           transform="scale(0.996264)"
           xlink:href="#CMSY10-0"
           id="use395"
           x="0"
           y="0"
           width="100%"
           height="100%" />
        <path
           d="m 103.98186,63.169364 c 0,2.085928 -0.0934,2.085928 -1.49439,2.085928 -3.876092,-4.296388 -9.760276,-5.681818 -15.333128,-5.681818 -0.295766,0 -0.793898,0 -0.902864,-0.295766 -0.0934,-0.202366 -0.0934,-0.404732 -0.0934,-2.49066 3.082192,0 8.265878,0.591532 12.250934,2.973225 V 7.1762141 c 0,-3.5024906 -0.202366,-4.6855541 -8.76401,-4.6855541 H 86.65621 V 0 c 4.778954,0 9.760274,0 14.53923,0 4.77895,0 9.76027,0 14.55479,0 v 2.49066 h -2.98879 c -8.57721,0 -8.77958,1.0896638 -8.77958,4.6388543 z"
           id="use397"
           style="stroke-width:0.996264" />
        <use
           transform="matrix(0.996264,0,0,0.996264,123.17794,0)"
           xlink:href="#CMR17-48"
           id="use399"
           x="0"
           y="0"
           width="100%"
           height="100%" />
        <use
           transform="matrix(0.996264,0,0,0.996264,168.86842,0)"
           xlink:href="#CMR17-48"
           id="use401"
           x="0"
           y="0"
           width="100%"
           height="100%" />
      </g>
    </g>
  </g>
  <g
     id="ytick_2"
     transform="translate(2.0469146,-16.096737)">
    <g
       id="line2d_23">
      <g
         id="g409">
        <use
           style="fill:#262626;stroke:#262626;stroke-width:0.8"
           x="54"
           xlink:href="#m5cf742dbd0"
           y="223.008"
           id="use407"
           width="100%"
           height="100%" />
      </g>
    </g>
    <g
       id="text_24">
      <!-- $\mathdefault{0}$ -->
      <g
         style="fill:#262626"
         transform="matrix(0.13,0,0,-0.13,40.659261,227.50501)"
         id="g414">
        <use
           transform="scale(0.996264)"
           xlink:href="#CMR17-48"
           id="use412"
           x="0"
           y="0"
           width="100%"
           height="100%" />
      </g>
    </g>
  </g>
  <g
     id="ytick_3"
     transform="translate(2.0469146,-16.096737)">
    <g
       id="line2d_24">
      <g
         id="g420">
        <use
           style="fill:#262626;stroke:#262626;stroke-width:0.8"
           x="54"
           xlink:href="#m5cf742dbd0"
           y="194.01601"
           id="use418"
           width="100%"
           height="100%" />
      </g>
    </g>
    <g
       id="text_25">
      <!-- $\mathdefault{100}$ -->
      <g
         style="fill:#262626"
         transform="matrix(0.13,0,0,-0.13,27.977782,198.51301)"
         id="g429">
        <path
           d="m 26.494396,63.169364 c 0,2.085928 -0.0934,2.085928 -1.494396,2.085928 -3.87609,-4.296388 -9.760274,-5.681818 -15.3331259,-5.681818 -0.2957658,0 -0.7938978,0 -0.9028642,-0.295766 -0.0934,-0.202366 -0.0934,-0.404732 -0.0934,-2.49066 3.0821921,0 8.2658781,0.591532 12.2509341,2.973225 V 7.1762141 c 0,-3.5024906 -0.202366,-4.6855541 -8.76401,-4.6855541 H 9.1687421 V 0 c 4.7789539,0 9.7602739,0 14.5392279,0 4.778954,0 9.760274,0 14.554794,0 v 2.49066 h -2.988792 c -8.57721,0 -8.779576,1.0896638 -8.779576,4.6388543 z"
           id="use423"
           style="stroke-width:0.996264" />
        <use
           transform="matrix(0.996264,0,0,0.996264,45.690477,0)"
           xlink:href="#CMR17-48"
           id="use425"
           x="0"
           y="0"
           width="100%"
           height="100%" />
        <use
           transform="matrix(0.996264,0,0,0.996264,91.380954,0)"
           xlink:href="#CMR17-48"
           id="use427"
           x="0"
           y="0"
           width="100%"
           height="100%" />
      </g>
    </g>
  </g>
  <g
     id="ytick_4"
     transform="translate(2.0469146,-16.096737)">
    <g
       id="line2d_25">
      <g
         id="g435">
        <use
           style="fill:#262626;stroke:#262626;stroke-width:0.8"
           x="54"
           xlink:href="#m5cf742dbd0"
           y="165.024"
           id="use433"
           width="100%"
           height="100%" />
      </g>
    </g>
    <g
       id="text_26">
      <!-- $\mathdefault{200}$ -->
      <g
         style="fill:#262626"
         transform="matrix(0.13,0,0,-0.13,27.977782,169.52101)"
         id="g444">
        <path
           d="M 41.547322,15.395392 H 39.75716 C 38.760896,8.343711 37.951432,7.1450809 37.562266,6.5379825 37.064134,5.7440846 29.88792,5.7440846 28.486924,5.7440846 H 9.3711083 C 12.951432,9.6357409 19.92528,16.687422 28.393524,24.8599 c 6.070984,5.759651 13.153798,12.531133 13.153798,22.384807 0,11.752802 -9.371108,18.508717 -19.83188,18.508717 -10.958904,0 -17.6369863,-9.651308 -17.6369863,-18.58655 0,-3.891656 2.8953923,-4.389789 4.0940224,-4.389789 0.996264,0 3.9850559,0.607099 3.9850559,4.078456 0,3.066625 -2.5996262,3.953923 -3.9850559,3.953923 -0.6070984,0 -1.1986301,-0.0934 -1.6033624,-0.295766 1.8991283,8.483811 7.6743463,12.655666 13.7608963,12.655666 8.655044,0 14.336862,-6.864881 14.336862,-15.924657 0,-8.655044 -5.07472,-16.111457 -10.756538,-22.587173 L 4.0784557,2.2727273 V 0 H 39.150062 Z"
           id="use438"
           style="stroke-width:0.996264" />
        <use
           transform="matrix(0.996264,0,0,0.996264,45.690477,0)"
           xlink:href="#CMR17-48"
           id="use440"
           x="0"
           y="0"
           width="100%"
           height="100%" />
        <use
           transform="matrix(0.996264,0,0,0.996264,91.380954,0)"
           xlink:href="#CMR17-48"
           id="use442"
           x="0"
           y="0"
           width="100%"
           height="100%" />
      </g>
    </g>
  </g>
  <g
     id="ytick_5"
     transform="translate(2.0469146,-16.096737)">
    <g
       id="line2d_26">
      <g
         id="g450">
        <use
           style="fill:#262626;stroke:#262626;stroke-width:0.8"
           x="54"
           xlink:href="#m5cf742dbd0"
           y="136.032"
           id="use448"
           width="100%"
           height="100%" />
      </g>
    </g>
    <g
       id="text_27">
      <!-- $\mathdefault{300}$ -->
      <g
         style="fill:#262626"
         transform="matrix(0.13,0,0,-0.13,27.977782,140.52901)"
         id="g459">
        <use
           transform="scale(0.996264)"
           xlink:href="#CMR17-51"
           id="use453"
           x="0"
           y="0"
           width="100%"
           height="100%" />
        <use
           transform="matrix(0.996264,0,0,0.996264,45.690477,0)"
           xlink:href="#CMR17-48"
           id="use455"
           x="0"
           y="0"
           width="100%"
           height="100%" />
        <use
           transform="matrix(0.996264,0,0,0.996264,91.380954,0)"
           xlink:href="#CMR17-48"
           id="use457"
           x="0"
           y="0"
           width="100%"
           height="100%" />
      </g>
    </g>
  </g>
  <g
     id="ytick_6"
     transform="translate(2.0469146,-16.096737)">
    <g
       id="line2d_27">
      <g
         id="g465">
        <use
           style="fill:#262626;stroke:#262626;stroke-width:0.8"
           x="54"
           xlink:href="#m5cf742dbd0"
           y="107.04"
           id="use463"
           width="100%"
           height="100%" />
      </g>
    </g>
    <g
       id="text_28">
      <!-- $\mathdefault{400}$ -->
      <g
         style="fill:#262626"
         transform="matrix(0.13,0,0,-0.13,27.977782,111.53701)"
         id="g474">
        <path
           d="m 33.468244,64.165628 c 0,2.085928 -0.0934,2.085928 -1.883562,2.085928 L 1.992528,19.520548 v -2.58406 H 27.693026 V 7.1139476 C 27.693026,3.486924 27.49066,2.49066 20.516812,2.49066 H 18.63325 V 0 c 3.191158,0 8.561644,0 11.955168,0 3.377958,0 8.76401,0 11.955168,0 v 2.49066 h -1.899128 c -6.973848,0 -7.176214,0.996264 -7.176214,4.6232876 V 16.936488 H 43.63325 v 2.58406 H 33.468244 Z M 27.988792,57.643212 V 19.520548 H 3.985056 Z"
           id="use468"
           style="stroke-width:0.996264" />
        <use
           transform="matrix(0.996264,0,0,0.996264,45.690477,0)"
           xlink:href="#CMR17-48"
           id="use470"
           x="0"
           y="0"
           width="100%"
           height="100%" />
        <use
           transform="matrix(0.996264,0,0,0.996264,91.380954,0)"
           xlink:href="#CMR17-48"
           id="use472"
           x="0"
           y="0"
           width="100%"
           height="100%" />
      </g>
    </g>
  </g>
  <g
     id="ytick_7"
     transform="translate(2.0469146,-16.096737)">
    <g
       id="line2d_28">
      <g
         id="g480">
        <use
           style="fill:#262626;stroke:#262626;stroke-width:0.8"
           x="54"
           xlink:href="#m5cf742dbd0"
           y="78.047997"
           id="use478"
           width="100%"
           height="100%" />
      </g>
    </g>
    <g
       id="text_29">
      <!-- $\mathdefault{500}$ -->
      <g
         style="fill:#262626"
         transform="matrix(0.13,0,0,-0.13,27.977782,82.545014)"
         id="g489">
        <path
           d="m 11.363636,57.47198 c 0.996264,-0.404733 5.07472,-1.681196 9.262142,-1.681196 9.262142,0 14.336862,5.090286 17.232254,8.032379 0,0.887297 0,1.432129 -0.591532,1.432129 -0.108966,0 -0.311332,0 -1.10523,-0.451432 -3.486924,-1.634496 -7.56538,-2.957659 -12.5467,-2.957659 -2.988792,0 -7.47198,0.404732 -12.3599,2.58406 -1.089664,0.498132 -1.29203,0.498132 -1.3854297,0.498132 -0.498132,0 -0.6070984,-0.108966 -0.6070984,-2.085928 v -28.54919 c 0,-1.774595 0,-2.272727 0.9962641,-2.272727 0.498132,0 0.700498,0.202366 1.19863,0.887297 3.191158,4.467622 7.56538,6.351183 12.5467,6.351183 3.486924,0 10.958904,-2.179327 10.958904,-19.193648 0,-3.175592 0,-8.935243 -2.988792,-13.5118309 -2.49066,-4.0784557 -6.36675,-6.16438347 -10.647572,-6.16438347 -6.584682,0 -13.2627642,4.59215437 -15.0529261,12.28206737 0.4047322,-0.108967 1.1986301,-0.295766 1.6033624,-0.295766 1.2920298,0 3.7826897,0.700498 3.7826897,3.78269 0,2.677459 -1.8991281,3.767123 -3.7826897,3.767123 -2.3038606,0 -3.7982566,-1.400996 -3.7982566,-4.187422 0,-8.6706103 6.8804483,-17.730386 17.4346203,-17.730386 10.273972,0 20.034246,8.841843 20.034246,21.668742 0,11.924035 -7.767746,21.17061 -17.43462,21.17061 -5.090286,0 -9.371108,-1.883562 -12.749066,-5.448319 z"
           id="use483"
           style="stroke-width:0.996264" />
        <use
           transform="matrix(0.996264,0,0,0.996264,45.690477,0)"
           xlink:href="#CMR17-48"
           id="use485"
           x="0"
           y="0"
           width="100%"
           height="100%" />
        <use
           transform="matrix(0.996264,0,0,0.996264,91.380954,0)"
           xlink:href="#CMR17-48"
           id="use487"
           x="0"
           y="0"
           width="100%"
           height="100%" />
      </g>
    </g>
  </g>
  <g
     id="ytick_8"
     transform="translate(2.0469146,-16.096737)">
    <g
       id="line2d_29">
      <g
         id="g495">
        <use
           style="fill:#262626;stroke:#262626;stroke-width:0.8"
           x="54"
           xlink:href="#m5cf742dbd0"
           y="49.056"
           id="use493"
           width="100%"
           height="100%" />
      </g>
    </g>
    <g
       id="text_30">
      <!-- $\mathdefault{600}$ -->
      <g
         style="fill:#262626"
         transform="matrix(0.13,0,0,-0.13,27.977782,53.553014)"
         id="g507">
        <defs
           id="defs499">
          <path
             d="m 10.59375,34 c 0,23.65625 11.203125,29 17.703125,29 C 30.40625,63 35.5,62.640625 37.5,59 c -1.59375,0 -4.59375,0 -4.59375,-3.484375 0,-2.6875 2.1875,-3.59375 3.59375,-3.59375 0.90625,0 3.59375,0.390625 3.59375,3.703125 0,6.15625 -5,9.671875 -11.890625,9.671875 C 16.296875,65.296875 3.796875,52.96875 3.796875,31 3.796875,3.953125 15.09375,-2 23.09375,-2 32.796875,-2 42,6.671875 42,20.046875 42,32.515625 33.90625,41.59375 23.703125,41.59375 17.59375,41.59375 13.09375,37.609375 10.59375,30.625 Z m 12.5,-33.609375 C 10.796875,0.390625 10.796875,18.75 10.796875,22.4375 10.796875,29.625 14.203125,40 23.5,40 c 1.703125,0 6.59375,0 9.90625,-6.875 1.796875,-3.90625 1.796875,-7.984375 1.796875,-12.984375 0,-5.390625 0,-9.359375 -2.109375,-13.359375 -2.1875,-4.109375 -5.390625,-6.390625 -10,-6.390625 z"
             id="CMR17-54" />
        </defs>
        <use
           transform="scale(0.996264)"
           xlink:href="#CMR17-54"
           id="use501"
           x="0"
           y="0"
           width="100%"
           height="100%" />
        <use
           transform="matrix(0.996264,0,0,0.996264,45.690477,0)"
           xlink:href="#CMR17-48"
           id="use503"
           x="0"
           y="0"
           width="100%"
           height="100%" />
        <use
           transform="matrix(0.996264,0,0,0.996264,91.380954,0)"
           xlink:href="#CMR17-48"
           id="use505"
           x="0"
           y="0"
           width="100%"
           height="100%" />
      </g>
    </g>
  </g>
  <g
     id="text_31"
     transform="translate(2.0469146,-16.096737)">
    <!-- \textbf{Average Reward} -->
    <g
       style="fill:#262626"
       transform="matrix(0,-0.18,-0.18,0,10.416348,216.33419)"
       id="g545">
      <defs
         id="defs517">
        <path
           d="M 45.796875,67.203125 C 45.09375,69 44.90625,69.5 42.5,69.5 40,69.5 39.796875,69 39.09375,67.203125 l -24.796875,-60.75 c -0.703125,-1.59375 -0.703125,-1.78125 -3.5,-2.09375 C 8.296875,4.0625 7.90625,4.0625 5.703125,4.0625 H 3.90625 V -0.203125 C 6.5,0 12.5,0 15.40625,0 c 2.6875,0 10,0 12.296875,-0.203125 V 4.0625 c -2.203125,0 -6,0 -8.796875,1.109375 0.296875,0.921875 0.296875,1.109375 0.5,1.515625 l 5.296875,13.03125 H 51.5 L 57.796875,4.0625 H 48.40625 V 0 c 3.1875,0 12.890625,0 16.6875,0 C 68.296875,0 78.5,0 81,-0.203125 V 4.0625 H 71.5 Z M 38.09375,52.609375 49.703125,24 H 26.40625 Z"
           id="CMBX12-65" />
        <path
           d="m 49.5,37.53125 c 0.703125,1.5 1.09375,2.296875 7.40625,2.296875 V 44 c -3.609375,0 -3.8125,0 -7.90625,0 -2.703125,0 -2.90625,0 -8.59375,0 v -4.171875 c 2.6875,0 4.890625,-0.5 4.890625,-1.203125 0,-0.09375 0,-0.1875 -0.5,-1.1875 L 33.09375,11.921875 20.203125,39.828125 h 5.5 V 44.09375 C 23.40625,44 16.40625,44 13.703125,44 10.796875,44 5,44 2.40625,44.09375 v -4.265625 h 6.296875 l 17.59375,-37.9375 C 27.203125,0 27.40625,-0.5 29.703125,-0.5 31.296875,-0.5 32.09375,-0.296875 33,1.6875 Z"
           id="CMBX12-118" />
        <path
           d="M 13,18.578125 C 17.796875,16 23.40625,16 24.90625,16 c 13.796875,0 19.296875,7.65625 19.296875,14.625 0,5.078125 -2.90625,8.671875 -4.109375,9.65625 2.90625,1.53125 5.3125,1.90625 7,2.109375 C 46.796875,41.90625 46.5,41.53125 46.5,40.28125 c 0,-2 1.40625,-3.8125 4,-3.8125 2.59375,0 4,1.890625 4,3.96875 0,2.390625 -1.796875,5.5625 -6,5.5625 -4.296875,0 -8.40625,-2.203125 -10.5,-4.09375 -4.09375,2.375 -8,3.265625 -13.09375,3.265625 -13.8125,0 -19.3125,-7.625 -19.3125,-14.59375 0,-3.078125 1,-7.125 5.203125,-10.5 -1.703125,-1.9375 -3.5,-5.5 -3.5,-9.15625 C 7.296875,6.5625 9.59375,2.8125 11.703125,1.1875 9.296875,0.609375 3.09375,-1.640625 3.09375,-7.203125 3.09375,-12.96875 9.59375,-19.5 28,-19.5 c 16.59375,0 25,5.28125 25,12.640625 0,8.640625 -5.796875,11.46875 -8.296875,12.640625 -4.796875,2.359375 -11.203125,2.359375 -20,2.359375 -2.5,0 -6.90625,0 -7.40625,0.09375 -4.296875,0.75 -5.5,4.71875 -5.5,6.71875 0,0.828125 0.109375,2.34375 1.203125,3.625 z m 11.90625,0.59375 c -8.703125,0 -8.703125,6.84375 -8.703125,11.40625 0,4.578125 0,11.421875 8.703125,11.421875 8.6875,0 8.6875,-6.84375 8.6875,-11.421875 0,-4.5625 0,-11.40625 -8.6875,-11.40625 z M 30.5,-1 c 7.296875,0 14.296875,-1.265625 14.296875,-6.296875 0,-3.40625 -3.5,-9.03125 -16.703125,-9.03125 -13.1875,0 -16.796875,5.4375 -16.796875,9.125 C 11.296875,-1 17.59375,-1 19.09375,-1 Z"
           id="CMBX12-103" />
        <path
           d="m 52.90625,33.65625 c 13.5,3.578125 16.796875,10.703125 16.796875,16.078125 0,9.9375 -10.5,18.265625 -29,18.265625 H 3.796875 V 63.71875 H 14.40625 V 4.171875 H 3.796875 V 0 c 2.90625,0 13.296875,0 16.90625,0 3.59375,0 14.09375,0 17,0 V 4.171875 H 27.09375 V 32.71875 H 39 c 4,0 7.203125,-1.203125 9.40625,-3.828125 3,-3.421875 3,-5.640625 3,-12.375 0,-6.734375 0,-10.84375 5.09375,-14.265625 5.203125,-3.53125 13.40625,-3.53125 15.59375,-3.53125 10.203125,0 11.40625,9 11.40625,10.390625 0,1.703125 -0.796875,2 -2.09375,2 -1.90625,0 -2,-0.6875 -2.109375,-2 C 78.796875,4.09375 75.703125,2 72.90625,2 66.5,2 65.796875,8.65625 65,17.765625 64.40625,23.03125 63.703125,30.375 52.90625,33.65625 Z M 38.796875,36 H 27.09375 V 63.71875 H 39 c 16.296875,0 16.59375,-8.03125 16.59375,-13.8125 C 55.59375,44.515625 55.5,36 38.796875,36 Z"
           id="CMBX12-82" />
        <path
           d="m 72,37.4375 c 0.703125,1.6875 1,2.390625 6.796875,2.390625 V 44 C 75.90625,44 74.59375,44 71,44 c -4.09375,0 -5.40625,0 -9,0 v -4.171875 c 0.90625,0 5.796875,0 5.796875,-1.296875 0,-0.09375 0,-0.203125 -0.390625,-1.1875 l -10.5,-25.828125 -11.5,28.3125 h 5.6875 V 44.09375 C 48.703125,44 42.796875,44 40.09375,44 35,44 34.796875,44 29.796875,44 v -4.171875 h 5.90625 C 36,39.03125 36.5,37.734375 36.90625,36.84375 c 0.296875,-0.59375 1.296875,-2.984375 1.296875,-3.484375 0,-0.1875 -0.296875,-0.890625 -0.40625,-1.1875 L 30.203125,13.40625 19.40625,39.828125 h 5.6875 V 44.09375 C 22.796875,44 16,44 13.296875,44 c -3.203125,0 -8,0 -11,0 v -4.171875 h 5.90625 L 23.5,1.984375 C 24.203125,0.203125 24.59375,-0.5 26.796875,-0.5 c 1.109375,0 2.296875,0 3.109375,1.984375 L 40.5,27.8125 51.09375,1.6875 C 52,-0.5 53.09375,-0.5 54.296875,-0.5 56.5,-0.5 56.796875,0.09375 57.5,1.890625 Z"
           id="CMBX12-119" />
        <path
           d="m 34.703125,69 v -4.671875 c 6.203125,0 6.890625,0 6.890625,-3.90625 v -20.1875 C 39.40625,42.125 35,45 28.09375,45 13.90625,45 3.796875,36.21875 3.796875,22.25 3.796875,7.96875 13.703125,-0.5 27,-0.5 c 5.5,0 10.203125,1.96875 14.09375,5.359375 V 0 h 17.8125 V 4.5625 C 52.703125,4.5625 52,4.5625 52,8.4375 V 69 Z M 41.09375,10.328125 C 36.90625,4.09375 31.796875,2.78125 28.203125,2.78125 c -12.40625,0 -12.40625,12.671875 -12.40625,19.265625 0,4.703125 0,9.703125 2.203125,13.484375 3.09375,5.59375 9,6.1875 11.296875,6.1875 4.109375,0 8.5,-1.78125 11.796875,-6.15625 z"
           id="CMBX12-100" />
      </defs>
      <use
         transform="scale(0.996264)"
         xlink:href="#CMBX12-65"
         id="use519"
         x="0"
         y="0"
         width="100%"
         height="100%" />
      <use
         transform="matrix(0.996264,0,0,0.996264,84.636395,0)"
         xlink:href="#CMBX12-118"
         id="use521"
         x="0"
         y="0"
         width="100%"
         height="100%" />
      <use
         transform="matrix(0.996264,0,0,0.996264,140.67624,0)"
         xlink:href="#CMBX12-101"
         id="use523"
         x="0"
         y="0"
         width="100%"
         height="100%" />
      <use
         transform="matrix(0.996264,0,0,0.996264,191.81551,0)"
         xlink:href="#CMBX12-114"
         id="use525"
         x="0"
         y="0"
         width="100%"
         height="100%" />
      <use
         transform="matrix(0.996264,0,0,0.996264,237.59302,0)"
         xlink:href="#CMBX12-97"
         id="use527"
         x="0"
         y="0"
         width="100%"
         height="100%" />
      <use
         transform="matrix(0.996264,0,0,0.996264,292.07621,0)"
         xlink:href="#CMBX12-103"
         id="use529"
         x="0"
         y="0"
         width="100%"
         height="100%" />
      <use
         transform="matrix(0.996264,0,0,0.996264,348.11606,0)"
         xlink:href="#CMBX12-101"
         id="use531"
         x="0"
         y="0"
         width="100%"
         height="100%" />
      <use
         transform="matrix(0.996264,0,0,0.996264,436.61523,0)"
         xlink:href="#CMBX12-82"
         id="use533"
         x="0"
         y="0"
         width="100%"
         height="100%" />
      <use
         transform="matrix(0.996264,0,0,0.996264,520.2139,0)"
         xlink:href="#CMBX12-101"
         id="use535"
         x="0"
         y="0"
         width="100%"
         height="100%" />
      <use
         transform="matrix(0.996264,0,0,0.996264,571.35317,0)"
         xlink:href="#CMBX12-119"
         id="use537"
         x="0"
         y="0"
         width="100%"
         height="100%" />
      <use
         transform="matrix(0.996264,0,0,0.996264,649.18629,0)"
         xlink:href="#CMBX12-97"
         id="use539"
         x="0"
         y="0"
         width="100%"
         height="100%" />
      <use
         transform="matrix(0.996264,0,0,0.996264,703.66948,0)"
         xlink:href="#CMBX12-114"
         id="use541"
         x="0"
         y="0"
         width="100%"
         height="100%" />
      <use
         transform="matrix(0.996264,0,0,0.996264,749.44699,0)"
         xlink:href="#CMBX12-100"
         id="use543"
         x="0"
         y="0"
         width="100%"
         height="100%" />
    </g>
  </g>
  <g
     clip-path="url(#pa16b0bf799)"
     id="g554"
     transform="translate(2.0469146,-16.096737)">
    <use
       style="fill:#db5f57;fill-opacity:0.5;stroke:#db5f57;stroke-opacity:0.5"
       x="0"
       xlink:href="#me17b2a4064"
       y="288"
       id="use552"
       width="100%"
       height="100%" />
  </g>
  <g
     clip-path="url(#pa16b0bf799)"
     id="g562"
     transform="translate(2.0469146,-16.096737)">
    <use
       style="fill:#5770db;fill-opacity:0.5;stroke:#5770db;stroke-opacity:0.5"
       x="0"
       xlink:href="#m8e9a3b47b0"
       y="288"
       id="use560"
       width="100%"
       height="100%" />
  </g>
  <path
     clip-path="url(#pa16b0bf799)"
     d="m 54,241.33094 h 0.6696 l 0.6696,-1.4496 0.6696,-0.058 0.6696,-0.46387 0.6696,1.27565 0.6696,-0.26093 0.6696,-1.39162 0.6696,2.26138 0.6696,-3.04416 0.6696,-2.26138 1.3392,3.39207 0.6696,-0.49287 0.6696,-0.92774 0.6696,-3.2761 0.6696,-2.34835 0.6696,3.76896 0.6696,-3.50803 0.6696,1.15968 0.6696,-0.17395 0.6696,-2.60928 0.6696,0.89875 0.6696,-0.92775 0.6696,-1.15968 0.6696,2.75424 0.6696,-0.43488 0.6696,-1.10169 0.6696,-0.26093 0.6696,-2.49331 0.6696,-0.11597 0.6696,0.75379 0.6696,1.39162 0.6696,-3.24711 0.6696,0.058 0.6696,0.55085 0.6696,1.21766 0.6696,-4.20384 0.6696,-1.24666 0.6696,2.1744 0.6696,-0.49286 0.6696,-1.0727 0.6696,2.31936 0.6696,-0.17396 0.6696,-0.98572 0.6696,0.087 0.6696,-1.0727 0.6696,-0.46387 0.6696,-0.7538 0.6696,1.85549 0.6696,-0.20294 0.6696,-3.18912 0.6696,2.05843 0.6696,-2.34835 0.6696,-2.87021 0.6696,2.84122 0.6696,0.55084 1.3392,-4.78368 0.6696,2.72525 0.6696,-5.76941 0.6696,4.31981 1.3392,0.63783 0.6696,-3.88493 0.6696,0.92774 0.6696,-4.40678 0.6696,1.18867 0.6696,-1.33363 0.6696,0.029 0.6696,0.60883 0.6696,-7.30598 0.6696,0.95673 0.6696,5.13159 0.6696,-2.46432 2.0088,-4.89965 0.6696,-1.97146 0.6696,4.08788 0.6696,-8.55264 0.6696,3.50803 0.6696,-4.26183 0.6696,3.30509 0.6696,-3.53702 0.6696,-1.85549 0.6696,-1.33363 0.6696,2.84121 0.6696,-5.59545 0.6696,-0.75379 0.6696,-2.37735 0.6696,1.39162 0.6696,2.72525 0.6696,-1.76852 0.6696,-1.4496 0.6696,-3.76896 0.6696,-0.78278 0.6696,2.34835 0.6696,-11.33587 0.6696,2.31936 0.6696,1.85549 0.6696,-1.94247 0.6696,1.65255 0.6696,-5.91437 0.6696,-8.3207 0.6696,4.81267 0.6696,-1.56557 0.6696,0.69581 0.6696,-1.50759 0.6696,0.57984 0.6696,-1.94246 0.6696,-3.9719 0.6696,2.58028 0.6696,1.07271 1.3392,-8.87155 0.6696,0.28992 0.6696,-4.46477 0.6696,5.18957 0.6696,-4.98663 0.6696,-7.9728 0.6696,8.72659 0.6696,-3.33408 0.6696,3.68199 0.6696,-3.85594 0.6696,0.029 0.6696,-2.72524 0.6696,5.21856 0.6696,-6.66816 0.6696,3.45004 0.6696,-7.79884 0.6696,0.78278 0.6696,-2.49331 0.6696,6.00134 0.6696,-11.10393 1.3392,2.78323 0.6696,4.95763 0.6696,1.59456 0.6696,-4.58074 0.6696,-8.14675 0.6696,2.52231 0.6696,-3.50804 0.6696,0.92775 0.6696,-0.78279 0.6696,-2.58028 0.6696,4.63872 0.6696,7.39296 0.6696,-8.7266 0.6696,-0.7248 0.6696,4.98663 0.6696,-0.43488 0.6696,-9.04551 0.6696,9.53837 0.6696,-0.14496 0.6696,-8.95853 0.6696,4.7257 0.6696,-0.40589 0.6696,1.50759 0.6696,-4.78368 0.6696,-6.92909 0.6696,4.3488 0.6696,0.28992 0.6696,-2.00045 0.6696,4.43578 0.6696,-8.78458 0.6696,5.18957 0.6696,1.94246 0.6696,-5.71142 0.6696,-9.19047 0.6696,1.59456 0.6696,6.34925 0.6696,-7.36397 0.6696,5.53748 0.6696,-2.8992 0.6696,-4.46477 0.6696,7.62489 0.6696,-11.68377 0.6696,2.81222 0.6696,9.16147 0.6696,-7.76985 0.6696,-0.57984 0.6696,-3.71098 0.6696,-1.30464 0.6696,6.87111 0.6696,-1.1017 0.6696,4.63872 0.6696,-13.13338 0.6696,10.1762 0.6696,-1.56557 0.6696,3.39206 0.6696,-1.97145 0.6696,-2.43533 1.3392,7.68288 0.6696,2.20339 0.6696,-11.62579 0.6696,2.11641 0.6696,0.81178 0.6696,1.24666 0.6696,8.92953 0.6696,-11.36486 0.6696,-0.49287 0.6696,1.65255 0.6696,2.81222 0.6696,-7.07405 0.6696,9.16148 0.6696,0.43488 0.6696,-12.03168 0.6696,0.49286 0.6696,1.50758 0.6696,6.66816 1.3392,-8.05977 0.6696,5.4215 0.6696,-0.20294 0.6696,-4.7257 1.3392,-0.17395 0.6696,-2.31936 0.6696,8.78458 0.6696,-5.36352 0.6696,-2.98618 0.6696,2.34835 0.6696,0.52186 0.6696,-1.85549 0.6696,-2.928192 0.6696,0.608832 0.6696,8.08877 0.6696,-7.56691 0.6696,-0.84077 0.6696,-13.075394 0.6696,10.205184 0.6696,3.45005 0.6696,-6.34925 0.6696,1.217664 0.6696,-2.638272 0.6696,1.826496 0.6696,4.145856 0.6696,1.797506 0.6696,-6.001346 0.6696,2.812224 0.6696,-10.958976 0.6696,10.118208 0.6696,5.65344 0.6696,0.92774 0.6696,-13.220348 0.6696,2.75424 0.6696,-0.985728 0.6696,1.275648 0.6696,-2.46432 0.6696,1.536576 0.6696,4.812672 0.6696,-0.28992 0.6696,-5.276544 0.6696,-3.218112 0.6696,4.116864 0.6696,0.260928 0.6696,1.217664 0.6696,-1.507584 0.6696,-9.915264 0.6696,2.870208 0.6696,1.15968 0.6696,6.66816 0.6696,-4.377792 0.6696,-5.247552 0.6696,4.261824 0.6696,1.826496 0.6696,-10.089216 0.6696,5.856384 0.6696,-1.101696 0.6696,-0.492864 0.6696,11.277888 0.6696,-7.595904 0.6696,0.43488 0.6696,2.870208 0.6696,-8.639616 0.6696,-2.46432 0.6696,-1.710528 0.6696,2.1744 0.6696,-4.435776 0.6696,6.001344 0.6696,-0.43488 0.6696,-6.697152 0.6696,1.043712 0.6696,6.08832 0.6696,-4.174848 0.6696,-1.101696 0.6696,-4.696704 0.6696,7.39296 1.3392,-6.552192 0.6696,2.261376 0.6696,-2.957184 0.6696,8.320704 0.6696,-4.725696 0.6696,0.753792 0.6696,3.392064 0.6696,-4.000896 0.6696,-1.623552 0.6696,-0.956736 0.6696,3.624 0.6696,-1.043712 0.6696,-0.463872 0.6696,0.898752 0.6696,-0.86976 0.6696,1.275648 0.6696,-5.827392 0.6696,-0.318912 0.6696,4.580736 0.6696,1.101696 0.6696,-5.392512 0.6696,-4.290816 1.3392,19.13472 0.6696,-17.482176 0.6696,-2.31936 0.6696,7.39296 0.6696,-6.610176 0.6696,0.811776 0.6696,-0.08698 0.6696,6.726144 0.6696,0.347904 0.6696,-6.23328 0.6696,-4.05888 1.3392,6.320256 0.6696,1.913472 0.6696,-6.23328 0.6696,-4.174848 0.6696,6.987072 0.6696,-0.405888 0.6696,0.985728 0.6696,-9.741312 0.6696,2.60928 0.6696,6.117312 0.6696,-5.392512 0.6696,2.812224 0.6696,-5.36352 0.6696,0.521856 0.6696,4.145856 0.6696,-2.377344 0.6696,-4.870656 0.6696,3.855936 0.6696,-1.01472 0.6696,-4.841664 0.6696,10.089216 0.6696,-1.188672 0.6696,-8.26272 0.6696,4.580736 0.6696,6.23328 0.6696,-3.160128 0.6696,5.537472 0.6696,-0.550848 1.3392,-9.248448 0.6696,8.030784 0.6696,-4.63872 0.6696,-0.550848 0.6696,8.378688 0.6696,-2.60928 0.6696,-3.681984 0.6696,-0.14496 0.6696,5.595456 0.6696,-10.640064 0.6696,9.4224 0.6696,-2.116416 0.6696,-0.86976 0.6696,-4.319808 0.6696,10.350144 0.6696,-4.290816 0.6696,6.436224 0.6696,-12.524544 0.6696,4.3488 0.6696,2.1744 0.6696,-4.78368 0.6696,-0.753792 0.6696,2.435328 0.6696,0.753792 0.6696,-0.782784 0.6696,-1.362624 0.6696,-8.320704 0.6696,1.072704 1.3392,11.625792 0.6696,1.942464 0.6696,-8.26272 0.6696,-0.05798 1.3392,2.1744 0.6696,6.291264 0.6696,-8.030784 0.6696,-0.608832 0.6696,-0.985728 0.6696,-2.46432 0.6696,4.377792 0.6696,0.05798 0.6696,-1.275648 0.6696,-2.435328 0.6696,7.190016 0.6696,-4.116864 0.6696,1.101696 0.6696,-3.797952 0.6696,0.43488 0.6696,-1.971456 1.3392,-5.885376 0.6696,1.681536 0.6696,1.130688 0.6696,3.392064 0.6696,1.59456 0.6696,-4.087872 0.6696,-1.01472 0.6696,3.566016 0.6696,-3.218112 0.6696,5.740416 0.6696,0.666816 0.6696,-5.392512 0.6696,5.0736 0.6696,-8.639616 0.6696,2.841216 0.6696,8.465664 0.6696,5.65344 1.3392,-15.9456 0.6696,3.33408 0.6696,7.074048 0.6696,-4.812672 0.6696,-3.276096 0.6696,3.04416 0.6696,-1.30464 0.6696,1.768512 0.6696,3.073152 0.6696,-3.595008 0.6696,-5.537472 0.6696,3.392064 0.6696,1.73952 0.6696,4.725696 0.6696,-5.131584 0.6696,9.27744 0.6696,-10.00224 0.6696,3.218112 0.6696,-5.94336 0.6696,7.53792 0.6696,-5.65344 0.6696,1.59456 0.6696,-5.827392 0.6696,7.711872 0.6696,-5.189568 0.6696,1.362624 0.6696,2.638272 0.6696,0.811776 0.6696,-2.638272 0.6696,8.958528 0.6696,-5.740416 0.6696,-1.623552 0.6696,-4.000896 0.6696,2.261376 0.6696,-4.957632 0.6696,5.711424 0.6696,9.190464 0.6696,-9.27744 0.6696,-2.493312 0.6696,-1.420608 0.6696,7.305984 0.6696,-5.885376 0.6696,-7.219008 0.6696,11.364864 0.6696,-9.219456 0.6696,3.855936 0.6696,-1.797504 0.6696,4.725696 0.6696,-2.290368 0.6696,3.91392 0.6696,1.420608 0.6696,-6.407232 0.6696,2.02944 0.6696,0.05798 0.6696,-3.305088 0.6696,5.044608 0.6696,-0.811776 0.6696,-0.173952 0.6696,-6.900096 0.6696,10.176192 0.6696,1.826496 0.6696,-12.988416 0.6696,6.117312 0.6696,-2.667264 0.6696,-4.116864 0.6696,13.452288 0.6696,-11.248896 0.6696,3.595008 0.6696,2.551296 0.6696,-6.697152 0.6696,8.320704 0.6696,0.28992 0.6696,-6.407232 0.6696,1.507584 0.6696,13.307328 0.6696,-8.523648 v 0"
     style="fill:none;stroke:#000000;stroke-width:1.5;stroke-linecap:round"
     id="path565"
     transform="translate(2.0469146,-16.096737)" />
  <path
     d="M 56.046915,235.90326 V 18.463263"
     style="fill:none;stroke:#262626;stroke-width:0.8;stroke-linecap:square;stroke-linejoin:miter"
     id="path568" />
  <path
     d="M 390.84691,235.90326 V 18.463263"
     style="fill:none;stroke:#262626;stroke-width:0.8;stroke-linecap:square;stroke-linejoin:miter"
     id="path571" />
  <path
     d="M 56.046915,235.90326 H 390.84691"
     style="fill:none;stroke:#262626;stroke-width:0.8;stroke-linecap:square;stroke-linejoin:miter"
     id="path574" />
  <path
     d="M 56.046915,18.463263 H 390.84691"
     style="fill:none;stroke:#262626;stroke-width:0.8;stroke-linecap:square;stroke-linejoin:miter"
     id="path577" />
  <g
     style="fill:#262626"
     transform="matrix(0.18,0,0,-0.18,18.035932,12.463263)"
     id="g677">
    <defs
       id="defs593">
      <path
         d="m 50.5,21.375 h -4.203125 c -0.296875,-2.09375 -1,-7.96875 -2.5,-8.953125 C 43,11.71875 35.203125,11.71875 33.703125,11.71875 h -15.5 C 22,14.90625 31.09375,22.46875 32.59375,23.578125 43.703125,31.84375 50.5,36.90625 50.5,46.46875 c 0,11.734375 -10.703125,18.8125 -23.90625,18.8125 -11.296875,0 -21,-6.375 -21,-15.828125 0,-5.28125 4.3125,-6.765625 6.609375,-6.765625 3.09375,0 6.703125,2.078125 6.703125,6.671875 0,4.1875 -3.109375,6.265625 -6.203125,6.671875 C 16.703125,60.609375 22,61 24.09375,61 c 9.203125,0 13.609375,-7.453125 13.609375,-14.625 0,-7.765625 -5.296875,-14.921875 -9.40625,-19.203125 L 6.59375,4.578125 c -1,-0.90625 -1,-1.09375 -1,-2.890625 V 0 h 42 z"
         id="CMBX12-50" />
      <path
         d="m 31.203125,17 v 9.140625 h -30 V 17 Z"
         id="CMBX12-45" />
      <path
         d="M 73.5,63.828125 H 84.09375 V 68 c -2.890625,0 -13.59375,0 -17.1875,0 -3.609375,0 -14.3125,0 -17.203125,0 v -4.171875 h 10.59375 v -26.5625 H 27.59375 v 26.5625 H 38.203125 V 68 C 35.296875,68 24.59375,68 21,68 17.40625,68 6.703125,68 3.796875,68 V 63.828125 H 14.40625 V 4.171875 H 3.796875 V 0 C 6.703125,0 17.40625,0 21,0 24.59375,0 35.296875,0 38.203125,0 V 4.171875 H 27.59375 V 33 H 60.296875 V 4.171875 H 49.703125 V 0 C 52.59375,0 63.296875,0 66.90625,0 70.5,0 81.203125,0 84.09375,0 V 4.171875 H 73.5 Z"
         id="CMBX12-72" />
      <path
         d="M 21.703125,69 H 4.40625 v -4.671875 c 6.1875,0 6.890625,0 6.890625,-3.921875 V 4.0625 H 4.40625 V -0.203125 C 6.703125,0 13.796875,0 16.5,0 19.203125,0 26.296875,0 28.59375,-0.203125 V 4.0625 h -6.890625 z"
         id="CMBX12-108" />
      <path
         d="M 21.703125,39.734375 H 33.09375 V 44 H 21.203125 V 54.15625 C 21.203125,64.421875 27.796875,66 31.09375,66 32.203125,66 32.40625,65.890625 33,65.703125 c -1.5,-1 -2.40625,-2.671875 -2.40625,-4.734375 0,-3.953125 3.203125,-5.71875 5.8125,-5.71875 2.1875,0 5.796875,1.46875 5.796875,5.828125 0,4.046875 -3.609375,8.203125 -10.703125,8.203125 -9.09375,0 -20.203125,-3.765625 -20.203125,-15.21875 V 44 H 3.90625 v -4.265625 h 7.390625 V 4.0625 H 4.40625 V -0.203125 C 6.703125,0 14.203125,0 17,0 19.90625,0 28,0 30.40625,-0.203125 V 4.0625 h -8.703125 z"
         id="CMBX12-102" />
      <path
         d="m 74.90625,66.4375 c 0,2.28125 0,2.578125 -2.203125,2.578125 l -7.5,-7.15625 C 59.59375,66.609375 52.90625,69 45.5,69 21.59375,69 6.203125,54.640625 6.203125,33.859375 c 0,-20.390625 14.890625,-35.125 39.390625,-35.125 17.8125,0 29.3125,12.0625 29.3125,23.75 0,1.6875 -0.609375,1.6875 -2.109375,1.6875 -1,0 -2,0 -2.09375,-0.984375 C 69.796875,8.15625 56.90625,3 47.90625,3 41.40625,3 32.59375,4.796875 27,11.015625 c -3.5,3.765625 -6.703125,9.1875 -6.703125,22.84375 0,9.703125 1.5,16.921875 6.203125,22.453125 6.40625,7.421875 16.40625,8.421875 21.203125,8.421875 7.5,0 19.59375,-4.171875 22.59375,-21.578125 0.203125,-0.890625 1.109375,-0.890625 2.296875,-0.890625 2.3125,0 2.3125,0.203125 2.3125,2.578125 z"
         id="CMBX12-67" />
      <path
         d="M 53.09375,30.0625 C 53.09375,39.453125 49,44.28125 38,44.28125 c -10.09375,0 -15,-7.03125 -16.40625,-10 H 21.5 V 69 H 4.203125 v -4.671875 c 6.203125,0 6.890625,0 6.890625,-4.046875 V 4.0625 H 4.203125 V -0.203125 C 6.5,0 13.703125,0 16.5,0 19.296875,0 26.59375,0 28.90625,-0.203125 V 4.0625 H 22 V 25.109375 C 22,35.765625 30,41 36.40625,41 c 3.6875,0 5.796875,-2.359375 5.796875,-9.859375 V 4.0625 h -6.90625 V -0.203125 C 37.59375,0 44.796875,0 47.59375,0 50.40625,0 57.703125,0 60,-0.203125 V 4.0625 h -6.90625 z"
         id="CMBX12-104" />
      <path
         d="m 27.59375,30.21875 h 17 c 16.703125,0 26,8.4375 26,18.65625 0,10.6875 -9.5,19.125 -26,19.125 H 3.796875 V 63.71875 H 14.40625 V 4.171875 H 3.796875 V 0 C 6.703125,0 17.40625,0 21,0 24.59375,0 35.296875,0 38.203125,0 V 4.171875 H 27.59375 Z M 41,63.71875 c 15.5,0 15.5,-8.125 15.5,-14.859375 C 56.5,42.328125 56.5,34 41,34 H 27.09375 v 29.71875 z"
         id="CMBX12-80" />
      <path
         d="m 28.203125,-14.921875 h -6.90625 V 4.1875 C 23.796875,2 28.203125,-0.5 34.203125,-0.5 c 13.703125,0 24.390625,8.203125 24.390625,22.640625 0,13.640625 -9.296875,22.4375 -22.796875,22.4375 -5.890625,0 -11,-1.796875 -15,-4.671875 v 4.765625 H 3.5 V 40 c 6.203125,0 6.90625,0 6.90625,-3.90625 V -14.921875 H 3.5 V -19.1875 C 5.796875,-19 13,-19 15.796875,-19 c 2.796875,0 10.109375,0 12.40625,-0.1875 z M 21.296875,35.09375 C 25,39.53125 30.296875,41 34.203125,41 40.703125,41 46.59375,35.171875 46.59375,22.140625 46.59375,7.8125 39.40625,2.78125 33,2.78125 c -4.296875,0 -8.59375,2.203125 -11.703125,6.90625 z"
         id="CMBX12-112" />
      <path
         d="M 35.296875,44.671875 V 40 c 6.203125,0 6.90625,0 6.90625,-3.875 V 16.5 c 0,-7.609375 -4.5,-13.71875 -12.296875,-13.71875 C 22.40625,2.78125 22,5.265625 22,10.6875 V 44.671875 H 4.203125 V 40 c 6.203125,0 6.890625,0 6.890625,-3.875 V 12.40625 C 11.09375,2.390625 17.796875,-0.5 28.5,-0.5 c 2.40625,0 9.796875,0 14.09375,8.25 h 0.109375 V 0 H 60 v 4.5625 c -6.203125,0 -6.90625,0 -6.90625,3.875 v 36.234375 z"
         id="CMBX12-117" />
      <path
         d="M 72.40625,61.734375 C 73,63.015625 73.40625,64 80.796875,64 H 82.5 v 4.171875 c -3.09375,0 -10.296875,0 -11.09375,0 -2.8125,0 -9.90625,0 -12.203125,0.109375 V 64 c 2.203125,0 5.890625,0 8.703125,-1.09375 l -0.5,-1.375 -20.5,-46.296875 L 25.296875,64 h 9.296875 v 4.171875 c -3.1875,0 -12.796875,0 -16.59375,0 -3.203125,0 -13.09375,0 -15.59375,0.109375 V 64 h 9 L 39,1.5625 C 39.90625,-0.40625 40.796875,-0.5 42.40625,-0.5 44,-0.5 45,-0.5 45.90625,1.5625 Z"
         id="CMBX12-86" />
      <path
         d="m 37.703125,42.421875 c 0,1.890625 0,2.578125 -1.5,2.578125 -0.609375,0 -0.796875,0 -2.296875,-0.890625 -0.40625,-0.296875 -1.5,-1 -2,-1.296875 -2.8125,1.59375 -6.5,2.1875 -10.109375,2.1875 -3,0 -18,0 -18,-12.875 0,-10.421875 12.40625,-12.59375 15.5,-13.09375 2.703125,-0.484375 6,-1.09375 6.40625,-1.09375 4,-0.890625 8,-3.375 8,-7.53125 0,-7.625 -9.109375,-7.625 -11.203125,-7.625 C 17.40625,2.78125 11.09375,4.359375 8.296875,14 7.703125,15.984375 7.59375,15.984375 5.90625,15.984375 3.796875,15.984375 3.796875,15.6875 3.796875,13.40625 V 2.0625 c 0,-1.875 0,-2.5625 1.5,-2.5625 0.703125,0 0.90625,0 2.90625,1.59375 l 2.59375,1.890625 C 15.296875,-0.5 20.703125,-0.5 22.5,-0.5 c 5.5,0 18,1.1875 18,14.375 0,4.75 -2.59375,8.03125 -4.59375,9.8125 -4.109375,3.359375 -7.5,3.96875 -12.90625,4.953125 -6.40625,1.09375 -12.40625,2.1875 -12.40625,6.9375 0,6.4375 8.90625,6.4375 11,6.4375 11.109375,0 11.703125,-6.9375 11.90625,-9.40625 0.09375,-1.28125 0.90625,-1.28125 2.09375,-1.28125 2.109375,0 2.109375,0.296875 2.109375,2.578125 z"
         id="CMBX12-115" />
      <path
         d="m 44,40.234375 c 0.90625,1.078125 0.90625,1.28125 0.90625,1.875 C 44.90625,44 43.90625,44 42,44 H 5.796875 L 4.703125,26.953125 H 8.90625 C 9.5,36.359375 11.703125,40.71875 22.796875,40.71875 h 9 L 4,3.953125 C 3.09375,2.875 3.09375,2.6875 3.09375,1.984375 3.09375,0 4,0 6,0 h 37.5 l 1.703125,19.625 H 41 C 40.203125,9.125 38,3.578125 25.40625,3.578125 h -9.109375 z"
         id="CMBX12-122" />
    </defs>
    <use
       transform="scale(0.996264)"
       xlink:href="#CMBX12-50"
       id="use595"
       x="0"
       y="0"
       width="100%"
       height="100%" />
    <use
       transform="matrix(0.996264,0,0,0.996264,56.039851,0)"
       xlink:href="#CMBX12-45"
       id="use597"
       x="0"
       y="0"
       width="100%"
       height="100%" />
    <use
       transform="matrix(0.996264,0,0,0.996264,93.399751,0)"
       xlink:href="#CMBX12-65"
       id="use599"
       x="0"
       y="0"
       width="100%"
       height="100%" />
    <use
       transform="matrix(0.996264,0,0,0.996264,178.03615,0)"
       xlink:href="#CMBX12-103"
       id="use601"
       x="0"
       y="0"
       width="100%"
       height="100%" />
    <use
       transform="matrix(0.996264,0,0,0.996264,234.076,0)"
       xlink:href="#CMBX12-101"
       id="use603"
       x="0"
       y="0"
       width="100%"
       height="100%" />
    <use
       transform="matrix(0.996264,0,0,0.996264,285.21526,0)"
       xlink:href="#CMBX12-110"
       id="use605"
       x="0"
       y="0"
       width="100%"
       height="100%" />
    <use
       transform="matrix(0.996264,0,0,0.996264,344.36844,0)"
       xlink:href="#CMBX12-116"
       id="use607"
       x="0"
       y="0"
       width="100%"
       height="100%" />
    <use
       transform="matrix(0.996264,0,0,0.996264,425.31489,0)"
       xlink:href="#CMBX12-72"
       id="use609"
       x="0"
       y="0"
       width="100%"
       height="100%" />
    <use
       transform="matrix(0.996264,0,0,0.996264,512.94936,0)"
       xlink:href="#CMBX12-97"
       id="use611"
       x="0"
       y="0"
       width="100%"
       height="100%" />
    <use
       transform="matrix(0.996264,0,0,0.996264,567.43255,0)"
       xlink:href="#CMBX12-108"
       id="use613"
       x="0"
       y="0"
       width="100%"
       height="100%" />
    <use
       transform="matrix(0.996264,0,0,0.996264,598.5658,0)"
       xlink:href="#CMBX12-102"
       id="use615"
       x="0"
       y="0"
       width="100%"
       height="100%" />
    <use
       transform="matrix(0.996264,0,0,0.996264,632.81238,0)"
       xlink:href="#CMBX12-67"
       id="use617"
       x="0"
       y="0"
       width="100%"
       height="100%" />
    <use
       transform="matrix(0.996264,0,0,0.996264,713.75883,0)"
       xlink:href="#CMBX12-104"
       id="use619"
       x="0"
       y="0"
       width="100%"
       height="100%" />
    <use
       transform="matrix(0.996264,0,0,0.996264,776.02533,0)"
       xlink:href="#CMBX12-101"
       id="use621"
       x="0"
       y="0"
       width="100%"
       height="100%" />
    <use
       transform="matrix(0.996264,0,0,0.996264,827.1646,0)"
       xlink:href="#CMBX12-101"
       id="use623"
       x="0"
       y="0"
       width="100%"
       height="100%" />
    <use
       transform="matrix(0.996264,0,0,0.996264,878.30386,0)"
       xlink:href="#CMBX12-116"
       id="use625"
       x="0"
       y="0"
       width="100%"
       height="100%" />
    <use
       transform="matrix(0.996264,0,0,0.996264,921.89041,0)"
       xlink:href="#CMBX12-97"
       id="use627"
       x="0"
       y="0"
       width="100%"
       height="100%" />
    <use
       transform="matrix(0.996264,0,0,0.996264,976.3736,0)"
       xlink:href="#CMBX12-104"
       id="use629"
       x="0"
       y="0"
       width="100%"
       height="100%" />
    <use
       transform="matrix(0.996264,0,0,0.996264,1076,0)"
       xlink:href="#CMBX12-80"
       id="use631"
       x="0"
       y="0"
       width="100%"
       height="100%" />
    <use
       transform="matrix(0.996264,0,0,0.996264,1149.4515,0)"
       xlink:href="#CMBX12-111"
       id="use633"
       x="0"
       y="0"
       width="100%"
       height="100%" />
    <use
       transform="matrix(0.996264,0,0,0.996264,1205.4913,0)"
       xlink:href="#CMBX12-112"
       id="use635"
       x="0"
       y="0"
       width="100%"
       height="100%" />
    <use
       transform="matrix(0.996264,0,0,0.996264,1267.7578,0)"
       xlink:href="#CMBX12-117"
       id="use637"
       x="0"
       y="0"
       width="100%"
       height="100%" />
    <use
       transform="matrix(0.996264,0,0,0.996264,1330.0243,0)"
       xlink:href="#CMBX12-108"
       id="use639"
       x="0"
       y="0"
       width="100%"
       height="100%" />
    <use
       transform="matrix(0.996264,0,0,0.996264,1361.1576,0)"
       xlink:href="#CMBX12-97"
       id="use641"
       x="0"
       y="0"
       width="100%"
       height="100%" />
    <use
       transform="matrix(0.996264,0,0,0.996264,1415.6408,0)"
       xlink:href="#CMBX12-116"
       id="use643"
       x="0"
       y="0"
       width="100%"
       height="100%" />
    <use
       transform="matrix(0.996264,0,0,0.996264,1459.2273,0)"
       xlink:href="#CMBX12-105"
       id="use645"
       x="0"
       y="0"
       width="100%"
       height="100%" />
    <use
       transform="matrix(0.996264,0,0,0.996264,1490.3606,0)"
       xlink:href="#CMBX12-111"
       id="use647"
       x="0"
       y="0"
       width="100%"
       height="100%" />
    <use
       transform="matrix(0.996264,0,0,0.996264,1546.4004,0)"
       xlink:href="#CMBX12-110"
       id="use649"
       x="0"
       y="0"
       width="100%"
       height="100%" />
    <use
       transform="matrix(0.996264,0,0,0.996264,1646.0268,0)"
       xlink:href="#CMBX12-86"
       id="use651"
       x="0"
       y="0"
       width="100%"
       height="100%" />
    <use
       transform="matrix(0.996264,0,0,0.996264,1730.6632,0)"
       xlink:href="#CMBX12-105"
       id="use653"
       x="0"
       y="0"
       width="100%"
       height="100%" />
    <use
       transform="matrix(0.996264,0,0,0.996264,1761.7965,0)"
       xlink:href="#CMBX12-115"
       id="use655"
       x="0"
       y="0"
       width="100%"
       height="100%" />
    <use
       transform="matrix(0.996264,0,0,0.996264,1806.0058,0)"
       xlink:href="#CMBX12-117"
       id="use657"
       x="0"
       y="0"
       width="100%"
       height="100%" />
    <use
       transform="matrix(0.996264,0,0,0.996264,1868.2723,0)"
       xlink:href="#CMBX12-97"
       id="use659"
       x="0"
       y="0"
       width="100%"
       height="100%" />
    <use
       transform="matrix(0.996264,0,0,0.996264,1922.7555,0)"
       xlink:href="#CMBX12-108"
       id="use661"
       x="0"
       y="0"
       width="100%"
       height="100%" />
    <use
       transform="matrix(0.996264,0,0,0.996264,1953.8888,0)"
       xlink:href="#CMBX12-105"
       id="use663"
       x="0"
       y="0"
       width="100%"
       height="100%" />
    <use
       transform="matrix(0.996264,0,0,0.996264,1985.022,0)"
       xlink:href="#CMBX12-122"
       id="use665"
       x="0"
       y="0"
       width="100%"
       height="100%" />
    <use
       transform="matrix(0.996264,0,0,0.996264,2034.8352,0)"
       xlink:href="#CMBX12-97"
       id="use667"
       x="0"
       y="0"
       width="100%"
       height="100%" />
    <use
       transform="matrix(0.996264,0,0,0.996264,2089.3184,0)"
       xlink:href="#CMBX12-116"
       id="use669"
       x="0"
       y="0"
       width="100%"
       height="100%" />
    <use
       transform="matrix(0.996264,0,0,0.996264,2132.9049,0)"
       xlink:href="#CMBX12-105"
       id="use671"
       x="0"
       y="0"
       width="100%"
       height="100%" />
    <use
       transform="matrix(0.996264,0,0,0.996264,2164.0382,0)"
       xlink:href="#CMBX12-111"
       id="use673"
       x="0"
       y="0"
       width="100%"
       height="100%" />
    <use
       transform="matrix(0.996264,0,0,0.996264,2220.078,0)"
       xlink:href="#CMBX12-110"
       id="use675"
       x="0"
       y="0"
       width="100%"
       height="100%" />
  </g>
  <g
     id="patch_7"
     transform="translate(2.0469146,-16.096737)">
    <path
       d="m 57,323.7552 h 328.8 q 3,0 3,-3 v -21.13365 q 0,-3 -3,-3 H 57 q -3,0 -3,3 v 21.13365 q 0,3 3,3 z"
       style="opacity:0.6;fill:#ffffff;stroke:#cccccc;stroke-linejoin:miter"
       id="path680" />
  </g>
  <g
     id="patch_8"
     transform="translate(2.0469146,-16.096737)">
    <path
       d="m 60,314.01921 h 30 v -10.5 H 60 Z"
       style="opacity:0.5;fill:#db5f57;stroke:#db5f57;stroke-linejoin:miter"
       id="path683" />
  </g>
  <g
     id="text_33"
     transform="translate(2.0469146,-16.096737)">
    <!-- Meta-Train/Val -->
    <g
       style="fill:#262626"
       transform="matrix(0.15,0,0,-0.15,102,314.01921)"
       id="g728">
      <defs
         id="defs698">
        <path
           d="m 20.90625,66 c -0.609375,1.5 -0.703125,1.5 -2.8125,1.5 H 5.296875 V 65 c 6.90625,0 8,0 8,-4.453125 V 9.53125 c 0,-2.484375 0,-7.140625 -8,-7.140625 v -2.59375 C 7.59375,0 11.796875,0 14.296875,0 c 2.5,0 6.703125,0 9,-0.203125 v 2.59375 c -8,0 -8,4.65625 -8,7.140625 v 55.078125 h 0.109375 l 23.5,-63.21875 c 0.390625,-1 0.59375,-1.59375 1.390625,-1.59375 0.796875,0 1,0.59375 1.40625,1.59375 L 65.40625,65.09375 H 65.5 v -58.25 c 0,-4.453125 -1.09375,-4.453125 -8,-4.453125 v -2.59375 C 60.203125,0 65.59375,0 68.5,0 c 2.90625,0 8.40625,0 11.09375,-0.203125 v 2.59375 c -6.890625,0 -8,0 -8,4.453125 V 60.546875 C 71.59375,65 72.703125,65 79.59375,65 v 2.5 h -12.6875 c -2.109375,0 -2.203125,-0.09375 -2.8125,-1.59375 L 42.5,7.84375 Z"
           id="CMR17-77" />
        <path
           d="M 38.09375,23 C 38.5,23.40625 38.5,23.609375 38.5,24.625 38.5,34.96875 33.09375,44 21.703125,44 c -10.609375,0 -19,-10.109375 -19,-22.390625 0,-13 9.5,-22.609375 20.09375,-22.609375 C 34,-1 38.40625,9.484375 38.40625,11.5625 c 0,0.6875 -0.609375,0.6875 -0.8125,0.6875 -0.6875,0 -0.796875,-0.203125 -1.1875,-1.375 C 34.203125,4.140625 28.703125,0.796875 23.5,0.796875 19.203125,0.796875 14.90625,3.171875 12.203125,7.5 9.09375,12.546875 9.09375,18.375 9.09375,23 Z M 9.203125,24.5 c 0.703125,14.640625 8.390625,17.90625 12.390625,17.90625 6.8125,0 11.40625,-6.515625 11.5,-17.90625 z"
           id="CMR17-101" />
        <path
           d="m 15.09375,40 h 14 v 2.578125 h -14 V 61 H 13.296875 C 13.09375,50.703125 9.59375,41.6875 1.09375,41.6875 V 40 H 9.796875 V 12.046875 C 9.796875,10.15625 9.796875,-1 21.40625,-1 c 5.890625,0 9.296875,5.78125 9.296875,13.140625 V 17.8125 H 28.90625 V 12.234375 C 28.90625,5.375 26.203125,0.796875 22,0.796875 c -2.90625,0 -6.90625,1.984375 -6.90625,11.046875 z"
           id="CMR17-116" />
        <path
           d="M 36,25.828125 C 36,32.375 36,35.84375 31.796875,39.734375 28.09375,43 23.796875,44 20.40625,44 12.5,44 6.796875,37.609375 6.796875,30.796875 6.796875,27 9.796875,27 10.40625,27 11.703125,27 14,27.78125 14,30.53125 14,33 12.09375,34.078125 10.40625,34.078125 10,34.078125 9.5,33.96875 9.203125,33.875 c 2.09375,6.625 7.5,8.53125 11,8.53125 5,0 10.5,-4.453125 10.5,-12.953125 V 25 c -5.90625,0 -13,-0.796875 -18.609375,-3.796875 C 5.796875,17.703125 4,12.703125 4,8.90625 4,1.203125 13,-1 18.296875,-1 c 5.5,0 10.609375,3.171875 12.796875,8.984375 0.203125,-4.34375 3,-8.265625 7.40625,-8.265625 2.09375,0 7.40625,1.375 7.40625,9.140625 V 14.375 h -1.8125 V 8.78125 c 0,-6 -2.6875,-6.78125 -4,-6.78125 C 36,2 36,7.15625 36,11.53125 Z M 30.703125,13.59375 c 0,-8.640625 -6.203125,-13 -11.703125,-13 -5,0 -8.90625,3.703125 -8.90625,8.3125 0,2.984375 1.3125,8.28125 7.109375,11.484375 C 22,23.09375 27.5,23.5 30.703125,23.5 Z"
           id="CMR17-97" />
        <path
           d="m 25.5,19 v 4.375 H 0.40625 V 19 Z"
           id="CMR17-45" />
        <path
           d="M 62.203125,67.59375 H 4.5 l -1.703125,-22 H 4.59375 C 5.90625,62.125 7.296875,65 22.703125,65 c 1.796875,0 4.703125,0 5.5,-0.09375 1.890625,-0.296875 1.890625,-1.5 1.890625,-3.78125 V 7.171875 C 30.09375,3.59375 29.796875,2.5 21.5,2.5 H 18.703125 V 0 C 23.5,0 28.5,0 33.40625,0 c 4.890625,0 9.890625,0 14.6875,0 V 2.5 H 45.296875 C 37,2.5 36.703125,3.59375 36.703125,7.171875 V 61.125 c 0,2.1875 0,3.390625 1.796875,3.78125 C 39.296875,65 42.203125,65 44,65 59.296875,65 60.796875,62.125 62.09375,45.59375 h 1.8125 z"
           id="CMR17-84" />
        <path
           d="M 15,23.390625 C 15,33 19.09375,42 26.59375,42 27.296875,42 28,41.90625 28.703125,41.59375 c 0,0 -2.203125,-0.703125 -2.203125,-3.28125 0,-2.40625 1.90625,-3.40625 3.40625,-3.40625 1.1875,0 3.390625,0.703125 3.390625,3.5 0,3.203125 -3.203125,5.1875 -6.59375,5.1875 -7.609375,0 -10.90625,-7.390625 -11.90625,-10.890625 h -0.09375 V 43.59375 L 3.09375,42.5 V 39.90625 C 9,39.90625 9.90625,39.296875 9.90625,34.5 V 6.6875 C 9.90625,2.875 9.5,2.390625 3.09375,2.390625 v -2.59375 C 5.5,0 10.09375,0 12.703125,0 c 2.890625,0 8,0 10.703125,-0.203125 v 2.59375 C 16.203125,2.390625 15,2.390625 15,6.875 Z"
           id="CMR17-114" />
        <path
           d="m 15.5,61.078125 c 0,2.1875 -1.796875,4.078125 -4.09375,4.078125 -2.203125,0 -4.109375,-1.78125 -4.109375,-4.078125 C 7.296875,58.890625 9.09375,57 11.40625,57 13.59375,57 15.5,58.796875 15.5,61.078125 Z M 3.796875,42.28125 v -2.578125 c 5.609375,0 6.40625,-0.609375 6.40625,-5.375 V 6.671875 c 0,-3.796875 -0.40625,-4.28125 -6.796875,-4.28125 v -2.59375 C 5.796875,0 10.09375,0 12.59375,0 c 2.40625,0 6.5,0 8.8125,-0.203125 v 2.59375 c -5.90625,0 -6.109375,0.59375 -6.109375,4.171875 V 43.375 Z"
           id="CMR17-105" />
        <path
           d="m 41.5,30.203125 c 0,5.09375 -1,13.390625 -12.796875,13.390625 -7.90625,0 -12,-6.09375 -13.5,-10.09375 H 15.09375 V 43.59375 L 3.296875,42.5 v -2.59375 c 5.90625,0 6.796875,-0.609375 6.796875,-5.40625 V 6.6875 c 0,-3.8125 -0.390625,-4.296875 -6.796875,-4.296875 v -2.59375 C 5.703125,0 10.09375,0 12.703125,0 c 2.59375,0 7.09375,0 9.5,-0.203125 v 2.59375 c -6.40625,0 -6.796875,0.390625 -6.796875,4.296875 V 25.90625 C 15.40625,35.109375 21,42 28,42 c 7.40625,0 8.203125,-6.59375 8.203125,-11.40625 V 6.6875 c 0,-3.8125 -0.40625,-4.296875 -6.796875,-4.296875 v -2.59375 C 31.796875,0 36.203125,0 38.796875,0 c 2.609375,0 7.109375,0 9.5,-0.203125 v 2.59375 C 41.90625,2.390625 41.5,2.78125 41.5,6.6875 Z"
           id="CMR17-110" />
        <path
           d="m 40.703125,71.015625 c 0.5,1.28125 0.5,1.484375 0.5,1.6875 0,1.1875 -0.90625,1.796875 -1.703125,1.796875 -1.203125,0 -1.59375,-0.796875 -2,-2 L 5.09375,-21.515625 c -0.5,-1.296875 -0.5,-1.5 -0.5,-1.703125 C 4.59375,-24.40625 5.5,-25 6.296875,-25 c 1.203125,0 1.609375,0.796875 2,1.984375 z"
           id="CMR17-47" />
        <path
           d="M 59,58.515625 C 59.90625,60.71875 61.5,65 68.203125,65 v 2.6875 c -2.296875,-0.203125 -4.90625,-0.203125 -7.40625,-0.203125 -2.390625,0 -6.5,0 -8.796875,0.203125 V 65 c 5,0 5.203125,-3.5 5.203125,-4.09375 0,-1.109375 -0.296875,-1.796875 -0.609375,-2.59375 l -19.6875,-51.34375 -20.609375,53.75 c -0.296875,0.703125 -0.5,1.203125 -0.5,1.6875 0,2.59375 4,2.59375 6.109375,2.59375 v 2.484375 c -3.203125,0 -7.90625,0 -11.203125,0 -2.609375,0 -7.296875,0 -9.703125,0.203125 V 65 c 5.796875,0 6.90625,-0.390625 8.09375,-3.578125 L 32.90625,-0.40625 C 33.40625,-1.796875 33.5,-2 34.59375,-2 c 1.109375,0 1.203125,0.203125 1.703125,1.59375 z"
           id="CMR17-86" />
        <path
           d="M 15.296875,68.6875 3.40625,67.59375 V 65 c 5.890625,0 6.796875,-0.59375 6.796875,-5.359375 V 6.65625 c 0,-3.78125 -0.40625,-4.265625 -6.796875,-4.265625 v -2.59375 C 5.796875,0 10.203125,0 12.703125,0 c 2.59375,0 7,0 9.390625,-0.203125 v 2.59375 c -6.390625,0 -6.796875,0.390625 -6.796875,4.265625 z"
           id="CMR17-108" />
      </defs>
      <use
         transform="scale(0.996264)"
         xlink:href="#CMR17-77"
         id="use700"
         x="0"
         y="0"
         width="100%"
         height="100%" />
      <use
         transform="matrix(0.996264,0,0,0.996264,84.686941,0)"
         xlink:href="#CMR17-101"
         id="use702"
         x="0"
         y="0"
         width="100%"
         height="100%" />
      <use
         transform="matrix(0.996264,0,0,0.996264,125.1726,0)"
         xlink:href="#CMR17-116"
         id="use704"
         x="0"
         y="0"
         width="100%"
         height="100%" />
      <use
         transform="matrix(0.996264,0,0,0.996264,160.45337,0)"
         xlink:href="#CMR17-97"
         id="use706"
         x="0"
         y="0"
         width="100%"
         height="100%" />
      <use
         transform="matrix(0.996264,0,0,0.996264,206.14385,0)"
         xlink:href="#CMR17-45"
         id="use708"
         x="0"
         y="0"
         width="100%"
         height="100%" />
      <use
         transform="matrix(0.996264,0,0,0.996264,236.21981,0)"
         xlink:href="#CMR17-84"
         id="use710"
         x="0"
         y="0"
         width="100%"
         height="100%" />
      <use
         transform="matrix(0.996264,0,0,0.996264,294.92244,0)"
         xlink:href="#CMR17-114"
         id="use712"
         x="0"
         y="0"
         width="100%"
         height="100%" />
      <use
         transform="matrix(0.996264,0,0,0.996264,330.20321,0)"
         xlink:href="#CMR17-97"
         id="use714"
         x="0"
         y="0"
         width="100%"
         height="100%" />
      <use
         transform="matrix(0.996264,0,0,0.996264,375.89368,0)"
         xlink:href="#CMR17-105"
         id="use716"
         x="0"
         y="0"
         width="100%"
         height="100%" />
      <use
         transform="matrix(0.996264,0,0,0.996264,400.76474,0)"
         xlink:href="#CMR17-110"
         id="use718"
         x="0"
         y="0"
         width="100%"
         height="100%" />
      <use
         transform="matrix(0.996264,0,0,0.996264,451.66011,0)"
         xlink:href="#CMR17-47"
         id="use720"
         x="0"
         y="0"
         width="100%"
         height="100%" />
      <use
         transform="matrix(0.996264,0,0,0.996264,497.35059,0)"
         xlink:href="#CMR17-86"
         id="use722"
         x="0"
         y="0"
         width="100%"
         height="100%" />
      <use
         transform="matrix(0.996264,0,0,0.996264,558.61576,0)"
         xlink:href="#CMR17-97"
         id="use724"
         x="0"
         y="0"
         width="100%"
         height="100%" />
      <use
         transform="matrix(0.996264,0,0,0.996264,604.30624,0)"
         xlink:href="#CMR17-108"
         id="use726"
         x="0"
         y="0"
         width="100%"
         height="100%" />
    </g>
  </g>
  <g
     id="patch_9"
     transform="translate(2.0469146,-16.096737)">
    <path
       d="m 275.69067,314.01921 h 30 v -10.5 h -30 z"
       style="opacity:0.5;fill:#5770db;stroke:#5770db;stroke-linejoin:miter"
       id="path731" />
  </g>
  <g
     id="text_34"
     transform="translate(2.0469146,-16.096737)">
    <!-- Meta-Test -->
    <g
       style="fill:#262626"
       transform="matrix(0.15,0,0,-0.15,317.69067,314.01921)"
       id="g755">
      <defs
         id="defs735">
        <path
           d="m 30.90625,42.140625 c 0,1.8125 -0.109375,1.90625 -0.703125,1.90625 -0.40625,0 -0.5,-0.09375 -1.703125,-1.59375 -0.296875,-0.40625 -1.203125,-1.421875 -1.5,-1.8125 -3.203125,3.40625 -7.703125,3.40625 -9.40625,3.40625 C 6.5,44.046875 2.5,38.234375 2.5,32.4375 c 0,-9.03125 10.203125,-11.109375 13.09375,-11.734375 6.3125,-1.28125 8.5,-1.6875 10.609375,-3.5 1.296875,-1.1875 3.5,-3.390625 3.5,-6.984375 0,-4.21875 -2.40625,-9.625 -11.609375,-9.625 -8.6875,0 -11.796875,6.59375 -13.59375,15.359375 -0.296875,1.390625 -0.296875,1.5 -1.09375,1.5 -0.8125,0 -0.90625,-0.109375 -0.90625,-2.09375 v -14.375 c 0,-1.78125 0.09375,-1.890625 0.703125,-1.890625 0.5,0 0.59375,0.109375 1.09375,0.90625 C 4.90625,0.890625 6.40625,3.296875 7,4.3125 9,1.609375 12.5,-1 18.09375,-1 28,-1 33.296875,4.421875 33.296875,12.25 c 0,5.125 -2.703125,7.828125 -4,9.03125 -3,3.109375 -6.5,3.8125 -10.703125,4.609375 -5.5,1.21875 -12.5,2.625 -12.5,8.75 0,2.59375 1.40625,8.125 11.5,8.125 10.703125,0 11.3125,-10.046875 11.5,-13.265625 C 29.203125,29 29.703125,28.890625 30,28.890625 c 0.90625,0 0.90625,0.3125 0.90625,2.015625 z"
           id="CMR17-115" />
      </defs>
      <use
         transform="scale(0.996264)"
         xlink:href="#CMR17-77"
         id="use737"
         x="0"
         y="0"
         width="100%"
         height="100%" />
      <use
         transform="matrix(0.996264,0,0,0.996264,84.686941,0)"
         xlink:href="#CMR17-101"
         id="use739"
         x="0"
         y="0"
         width="100%"
         height="100%" />
      <use
         transform="matrix(0.996264,0,0,0.996264,125.1726,0)"
         xlink:href="#CMR17-116"
         id="use741"
         x="0"
         y="0"
         width="100%"
         height="100%" />
      <use
         transform="matrix(0.996264,0,0,0.996264,160.45337,0)"
         xlink:href="#CMR17-97"
         id="use743"
         x="0"
         y="0"
         width="100%"
         height="100%" />
      <use
         transform="matrix(0.996264,0,0,0.996264,206.14385,0)"
         xlink:href="#CMR17-45"
         id="use745"
         x="0"
         y="0"
         width="100%"
         height="100%" />
      <use
         transform="matrix(0.996264,0,0,0.996264,236.21981,0)"
         xlink:href="#CMR17-84"
         id="use747"
         x="0"
         y="0"
         width="100%"
         height="100%" />
      <use
         transform="matrix(0.996264,0,0,0.996264,294.92244,0)"
         xlink:href="#CMR17-101"
         id="use749"
         x="0"
         y="0"
         width="100%"
         height="100%" />
      <use
         transform="matrix(0.996264,0,0,0.996264,335.4081,0)"
         xlink:href="#CMR17-115"
         id="use751"
         x="0"
         y="0"
         width="100%"
         height="100%" />
      <use
         transform="matrix(0.996264,0,0,0.996264,371.20944,0)"
         xlink:href="#CMR17-116"
         id="use753"
         x="0"
         y="0"
         width="100%"
         height="100%" />
    </g>
  </g>
  <defs
     id="defs764">
    <clipPath
       id="pa16b0bf799">
      <rect
         height="217.44"
         width="334.79999"
         x="54"
         y="34.560001"
         id="rect761" />
    </clipPath>
  </defs>
</svg>
