<?xml version="1.0" encoding="UTF-8" standalone="no"?>
<svg
   xmlns:dc="http://purl.org/dc/elements/1.1/"
   xmlns:cc="http://creativecommons.org/ns#"
   xmlns:rdf="http://www.w3.org/1999/02/22-rdf-syntax-ns#"
   xmlns:svg="http://www.w3.org/2000/svg"
   xmlns="http://www.w3.org/2000/svg"
   xmlns:xlink="http://www.w3.org/1999/xlink"
   xmlns:sodipodi="http://sodipodi.sourceforge.net/DTD/sodipodi-0.dtd"
   xmlns:inkscape="http://www.inkscape.org/namespaces/inkscape"
   height="10.460773pt"
   version="1.1"
   viewBox="0 0 308.6468 10.460772"
   width="308.64679pt"
   id="svg1447"
   sodipodi:docname="pca_label.svg"
   inkscape:version="1.0.1 (0767f8302a, 2020-10-17)">
  <metadata
     id="metadata1451">
    <rdf:RDF>
      <cc:Work
         rdf:about="">
        <dc:format>image/svg+xml</dc:format>
        <dc:type
           rdf:resource="http://purl.org/dc/dcmitype/StillImage" />
        <dc:title></dc:title>
      </cc:Work>
    </rdf:RDF>
  </metadata>
  <sodipodi:namedview
     pagecolor="#ffffff"
     bordercolor="#666666"
     borderopacity="1"
     objecttolerance="10"
     gridtolerance="10"
     guidetolerance="10"
     inkscape:pageopacity="0"
     inkscape:pageshadow="2"
     inkscape:window-width="2525"
     inkscape:window-height="1383"
     id="namedview1449"
     showgrid="false"
     fit-margin-top="0"
     fit-margin-left="0"
     fit-margin-right="0"
     fit-margin-bottom="0"
     inkscape:zoom="1.4437898"
     inkscape:cx="180.31858"
     inkscape:cy="201.68613"
     inkscape:window-x="35"
     inkscape:window-y="27"
     inkscape:window-maximized="1"
     inkscape:current-layer="svg1447"
     inkscape:document-rotation="0" />
  <defs
     id="defs4"
     style="stroke-linecap:butt;stroke-linejoin:round">
    <style
       type="text/css"
       id="style2">
*{stroke-linecap:butt;stroke-linejoin:round;}
  </style>
  </defs>
  <g
     id="PathCollection_4"
     style="stroke-linecap:butt;stroke-linejoin:round"
     transform="translate(-74.919326,-296.62769)">
    <g
       id="g1345"
       style="stroke-linecap:butt;stroke-linejoin:round">
      <path
         inkscape:connector-curvature="0"
         style="fill:#db5f57;fill-opacity:0.9;stroke:#db5f57;stroke-linecap:butt;stroke-linejoin:round;stroke-opacity:0.9"
         id="use1343"
         d="m 78.581604,306.1638 c 0.838646,0 1.643056,-0.33319 2.236068,-0.92621 0.593012,-0.59301 0.92621,-1.39742 0.92621,-2.23606 0,-0.83865 -0.333198,-1.64306 -0.92621,-2.23607 -0.593012,-0.59301 -1.397422,-0.92621 -2.236068,-0.92621 -0.838646,0 -1.643056,0.3332 -2.236068,0.92621 -0.593012,0.59301 -0.92621,1.39742 -0.92621,2.23607 0,0.83864 0.333198,1.64305 0.92621,2.23606 0.593012,0.59302 1.397422,0.92621 2.236068,0.92621 z" />
    </g>
  </g>
  <g
     id="text_14"
     style="stroke-linecap:butt;stroke-linejoin:round"
     transform="translate(-74.919326,-296.62769)">
    <!-- Meta-Train -->
    <defs
       id="defs1357">
      <path
         d="m 49.90625,37.046875 -4.8125,-14.03125 C 44.296875,20.421875 41.59375,12.359375 41,9.171875 h -0.09375 c -0.3125,2 -0.90625,4.09375 -2.5,9.171875 C 37.5,21.328125 36.5,24.40625 35.5,27.203125 L 20.703125,69 H 9 V 0 h 7.796875 v 60.9375 h 0.109375 c 0,-0.09375 0.890625,-4.484375 7,-21.890625 L 37.09375,1.5 H 44.5 l 11.90625,33.359375 c 0.796875,2.296875 3.296875,9.5625 4.390625,13.046875 1,2.984375 3.5,10.34375 4.109375,13.234375 H 65 V 0 h 7.90625 V 69 H 61.296875 Z"
         id="CMSS17-77"
         inkscape:connector-curvature="0"
         style="stroke-linecap:butt;stroke-linejoin:round" />
      <path
         d="m 39.09375,21.515625 c 0,3.328125 -0.1875,9.78125 -3.390625,15.125 C 32.203125,42.390625 26.5,44 22.203125,44 11.796875,44 3,34.1875 3,21.484375 3,9.09375 12.09375,-1 23.59375,-1 c 4.5,0 10,1.296875 15,4.875 0,0.40625 -0.1875,2.59375 -0.296875,2.6875 C 38.296875,6.765625 38,9.84375 38,10.25 33.203125,6.359375 27.703125,5.078125 23.703125,5.078125 c -6.40625,0 -13.296875,5.34375 -13.609375,16.4375 z M 10.90625,27 c 1.296875,5.5625 5.6875,10.828125 11.296875,10.828125 1.5,0 8.5,0 10.296875,-10.828125 z"
         id="CMSS17-101"
         inkscape:connector-curvature="0"
         style="stroke-linecap:butt;stroke-linejoin:round" />
      <path
         d="m 16.703125,37 h 13 v 5.765625 h -13 V 55 H 9.59375 V 42.765625 H 1.703125 V 37 H 9.40625 V 11.703125 C 9.40625,6 10.703125,-1 17.296875,-1 c 5,0 9.609375,1.390625 14,3.6875 l -1.59375,5.875 c -2.40625,-2.09375 -5.296875,-3.296875 -8.40625,-3.296875 -4.390625,0 -4.59375,5.609375 -4.59375,8.109375 z"
         id="CMSS17-116"
         inkscape:connector-curvature="0"
         style="stroke-linecap:butt;stroke-linejoin:round" />
      <path
         d="M 37.59375,27.984375 C 37.59375,37.375 30.90625,43.875 21.90625,43.875 17.5,43.875 12.703125,43.078125 7.203125,39.890625 l 0.59375,-6.53125 C 10.296875,35.125 14.59375,38 21.796875,38 26.90625,38 30,34.0625 30,27.84375 V 24 C 14,24 4,19.34375 4,11.34375 4,7.203125 6.5,-1 14.796875,-1 c 1.5,0 9.609375,0 15.40625,4.390625 v -3.6875 H 37.59375 Z M 30,12.75 C 30,10.953125 30,8.5625 27,6.78125 24.40625,5.078125 21.09375,5.078125 19.703125,5.078125 c -5,0 -8.40625,2.90625 -8.40625,6.546875 0,7.296875 15.609375,7.296875 18.703125,7.296875 z"
         id="CMSS17-97"
         inkscape:connector-curvature="0"
         style="stroke-linecap:butt;stroke-linejoin:round" />
      <path
         d="m 26,19 v 5.765625 H 1 V 19 Z"
         id="CMSS17-45"
         inkscape:connector-curvature="0"
         style="stroke-linecap:butt;stroke-linejoin:round" />
      <path
         d="M 36.203125,62 H 44.5 c 1.203125,0 2.40625,0 3.59375,0 h 12.5 v 6.375 H 3.40625 V 62 h 12.5 c 1.1875,0 2.390625,0 3.59375,0 h 8.296875 V -0.5 h 8.40625 z"
         id="CMSS17-84"
         inkscape:connector-curvature="0"
         style="stroke-linecap:butt;stroke-linejoin:round" />
      <path
         d="M 14.90625,21.296875 C 14.90625,30.703125 21.796875,37 30.59375,37 v 6.578125 c -6.390625,0 -12.390625,-3.1875 -16,-8.375 V 43.09375 H 7.5 V 0 h 7.40625 z"
         id="CMSS17-114"
         inkscape:connector-curvature="0"
         style="stroke-linecap:butt;stroke-linejoin:round" />
      <path
         d="M 15.296875,65.359375 H 6.90625 V 57 h 8.390625 z m -0.5,-22.5625 H 7.40625 V 0 h 7.390625 z"
         id="CMSS17-105"
         inkscape:connector-curvature="0"
         style="stroke-linecap:butt;stroke-linejoin:round" />
      <path
         d="M 40.90625,29.328125 C 40.90625,35.671875 39.40625,44 28.09375,44 21.703125,44 17.5,40.71875 14.703125,37.328125 V 43.09375 H 7.40625 V 0 H 15 V 24.359375 C 15,30.6875 17.40625,37.9375 24.203125,37.9375 33,37.9375 33.296875,32 33.296875,28.578125 V 0 h 7.609375 z"
         id="CMSS17-110"
         inkscape:connector-curvature="0"
         style="stroke-linecap:butt;stroke-linejoin:round" />
    </defs>
    <g
       style="fill:#262626;stroke-linecap:butt;stroke-linejoin:round"
       transform="matrix(0.15,0,0,-0.15,105.58161,306.93902)"
       id="g1379">
      <use
         transform="scale(0.996264)"
         xlink:href="#CMSS17-77"
         id="use1359"
         style="stroke-linecap:butt;stroke-linejoin:round"
         x="0"
         y="0"
         width="100%"
         height="100%" />
      <use
         transform="matrix(0.996264,0,0,0.996264,81.67603,0)"
         xlink:href="#CMSS17-101"
         id="use1361"
         style="stroke-linecap:butt;stroke-linejoin:round"
         x="0"
         y="0"
         width="100%"
         height="100%" />
      <use
         transform="matrix(0.996264,0,0,0.996264,123.31485,0)"
         xlink:href="#CMSS17-116"
         id="use1363"
         style="stroke-linecap:butt;stroke-linejoin:round"
         x="0"
         y="0"
         width="100%"
         height="100%" />
      <use
         transform="matrix(0.996264,0,0,0.996264,157.14642,0)"
         xlink:href="#CMSS17-97"
         id="use1365"
         style="stroke-linecap:butt;stroke-linejoin:round"
         x="0"
         y="0"
         width="100%"
         height="100%" />
      <use
         transform="matrix(0.996264,0,0,0.996264,202.06834,0)"
         xlink:href="#CMSS17-45"
         id="use1367"
         style="stroke-linecap:butt;stroke-linejoin:round"
         x="0"
         y="0"
         width="100%"
         height="100%" />
      <use
         transform="matrix(0.996264,0,0,0.996264,233.29745,0)"
         xlink:href="#CMSS17-84"
         id="use1369"
         style="stroke-linecap:butt;stroke-linejoin:round"
         x="0"
         y="0"
         width="100%"
         height="100%" />
      <use
         transform="matrix(0.996264,0,0,0.996264,289.30965,0)"
         xlink:href="#CMSS17-114"
         id="use1371"
         style="stroke-linecap:butt;stroke-linejoin:round"
         x="0"
         y="0"
         width="100%"
         height="100%" />
      <use
         transform="matrix(0.996264,0,0,0.996264,321.21942,0)"
         xlink:href="#CMSS17-97"
         id="use1373"
         style="stroke-linecap:butt;stroke-linejoin:round"
         x="0"
         y="0"
         width="100%"
         height="100%" />
      <use
         transform="matrix(0.996264,0,0,0.996264,366.14134,0)"
         xlink:href="#CMSS17-105"
         id="use1375"
         style="stroke-linecap:butt;stroke-linejoin:round"
         x="0"
         y="0"
         width="100%"
         height="100%" />
      <use
         transform="matrix(0.996264,0,0,0.996264,388.32207,0)"
         xlink:href="#CMSS17-110"
         id="use1377"
         style="stroke-linecap:butt;stroke-linejoin:round"
         x="0"
         y="0"
         width="100%"
         height="100%" />
    </g>
  </g>
  <g
     id="PathCollection_5"
     style="stroke-linecap:butt;stroke-linejoin:round"
     transform="translate(-74.919326,-296.62769)">
    <g
       id="g1384"
       style="stroke-linecap:butt;stroke-linejoin:round">
      <path
         inkscape:connector-curvature="0"
         style="fill:#57db5f;fill-opacity:0.9;stroke:#57db5f;stroke-linecap:butt;stroke-linejoin:round;stroke-opacity:0.9"
         id="use1382"
         d="m 193.70946,306.1638 c 0.83864,0 1.64305,-0.33319 2.23607,-0.92621 0.59301,-0.59301 0.92621,-1.39742 0.92621,-2.23606 0,-0.83865 -0.3332,-1.64306 -0.92621,-2.23607 -0.59302,-0.59301 -1.39743,-0.92621 -2.23607,-0.92621 -0.83865,0 -1.64306,0.3332 -2.23607,0.92621 -0.59301,0.59301 -0.92621,1.39742 -0.92621,2.23607 0,0.83864 0.3332,1.64305 0.92621,2.23606 0.59301,0.59302 1.39742,0.92621 2.23607,0.92621 z" />
    </g>
  </g>
  <g
     id="text_15"
     style="stroke-linecap:butt;stroke-linejoin:round"
     transform="translate(-74.919326,-296.62769)">
    <!-- Meta-Val -->
    <defs
       id="defs1389">
      <path
         d="M 61.09375,69 H 53.296875 L 36,21.28125 C 35.5,19.890625 32.40625,10.75 31.796875,7.5625 h -0.09375 c -0.796875,3.78125 -4,12.625 -5.703125,17.5 L 14.40625,57.375 10.09375,69 H 1.296875 l 25.5,-69 h 8.796875 z"
         id="CMSS17-86"
         inkscape:connector-curvature="0"
         style="stroke-linecap:butt;stroke-linejoin:round" />
      <path
         d="M 14.796875,69 H 7.40625 V 0 h 7.390625 z"
         id="CMSS17-108"
         inkscape:connector-curvature="0"
         style="stroke-linecap:butt;stroke-linejoin:round" />
    </defs>
    <g
       style="fill:#262626;stroke-linecap:butt;stroke-linejoin:round"
       transform="matrix(0.15,0,0,-0.15,220.70946,306.93902)"
       id="g1407">
      <use
         transform="scale(0.996264)"
         xlink:href="#CMSS17-77"
         id="use1391"
         style="stroke-linecap:butt;stroke-linejoin:round"
         x="0"
         y="0"
         width="100%"
         height="100%" />
      <use
         transform="matrix(0.996264,0,0,0.996264,81.67603,0)"
         xlink:href="#CMSS17-101"
         id="use1393"
         style="stroke-linecap:butt;stroke-linejoin:round"
         x="0"
         y="0"
         width="100%"
         height="100%" />
      <use
         transform="matrix(0.996264,0,0,0.996264,123.31485,0)"
         xlink:href="#CMSS17-116"
         id="use1395"
         style="stroke-linecap:butt;stroke-linejoin:round"
         x="0"
         y="0"
         width="100%"
         height="100%" />
      <use
         transform="matrix(0.996264,0,0,0.996264,157.14642,0)"
         xlink:href="#CMSS17-97"
         id="use1397"
         style="stroke-linecap:butt;stroke-linejoin:round"
         x="0"
         y="0"
         width="100%"
         height="100%" />
      <use
         transform="matrix(0.996264,0,0,0.996264,202.06834,0)"
         xlink:href="#CMSS17-45"
         id="use1399"
         style="stroke-linecap:butt;stroke-linejoin:round"
         x="0"
         y="0"
         width="100%"
         height="100%" />
      <use
         transform="matrix(0.996264,0,0,0.996264,233.29745,0)"
         xlink:href="#CMSS17-86"
         id="use1401"
         style="stroke-linecap:butt;stroke-linejoin:round"
         x="0"
         y="0"
         width="100%"
         height="100%" />
      <use
         transform="matrix(0.996264,0,0,0.996264,292.91285,0)"
         xlink:href="#CMSS17-97"
         id="use1403"
         style="stroke-linecap:butt;stroke-linejoin:round"
         x="0"
         y="0"
         width="100%"
         height="100%" />
      <use
         transform="matrix(0.996264,0,0,0.996264,337.83477,0)"
         xlink:href="#CMSS17-108"
         id="use1405"
         style="stroke-linecap:butt;stroke-linejoin:round"
         x="0"
         y="0"
         width="100%"
         height="100%" />
    </g>
  </g>
  <g
     id="PathCollection_6"
     style="stroke-linecap:butt;stroke-linejoin:round"
     transform="translate(-74.919326,-296.62769)">
    <g
       id="g1412"
       style="stroke-linecap:butt;stroke-linejoin:round">
      <path
         inkscape:connector-curvature="0"
         style="fill:#5f57db;fill-opacity:0.9;stroke:#5f57db;stroke-linecap:butt;stroke-linejoin:round;stroke-opacity:0.9"
         id="use1410"
         d="m 296.85983,306.1638 c 0.83865,0 1.64306,-0.33319 2.23607,-0.92621 0.59301,-0.59301 0.92621,-1.39742 0.92621,-2.23606 0,-0.83865 -0.3332,-1.64306 -0.92621,-2.23607 -0.59301,-0.59301 -1.39742,-0.92621 -2.23607,-0.92621 -0.83864,0 -1.64305,0.3332 -2.23607,0.92621 -0.59301,0.59301 -0.92621,1.39742 -0.92621,2.23607 0,0.83864 0.3332,1.64305 0.92621,2.23606 0.59302,0.59302 1.39743,0.92621 2.23607,0.92621 z" />
    </g>
  </g>
  <g
     id="text_16"
     style="stroke-linecap:butt;stroke-linejoin:round"
     transform="translate(-74.919326,-296.62769)">
    <!-- Meta-Test -->
    <defs
       id="defs1416">
      <path
         d="m 32.203125,41.046875 c -5.90625,2.8125 -10.5,2.8125 -13.5,2.8125 -7.109375,0 -15.609375,-2.484375 -15.609375,-12.5625 0,-10.0625 11,-12.265625 14,-12.875 4.609375,-0.890625 9.703125,-1.890625 9.703125,-6.859375 0,-6.296875 -7.203125,-6.296875 -8.5,-6.296875 -4,0 -9.5,1.09375 -14.5,4.703125 L 2.59375,3.28125 C 8.296875,0 13.796875,-1 18.40625,-1 c 12.296875,0 15.390625,7.5 15.390625,13.203125 0,4.890625 -2.796875,8.1875 -4.703125,9.6875 C 25.796875,24.5 24.59375,24.796875 16.40625,26.5 15,26.703125 10.09375,27.796875 10.09375,32.28125 10.09375,38 16.40625,38 17.796875,38 c 6.5,0 10.5,-2.015625 13.203125,-3.5 z"
         id="CMSS17-115"
         inkscape:connector-curvature="0"
         style="stroke-linecap:butt;stroke-linejoin:round" />
    </defs>
    <g
       style="fill:#262626;stroke-linecap:butt;stroke-linejoin:round"
       transform="matrix(0.15,0,0,-0.15,323.85982,306.93902)"
       id="g1436">
      <use
         transform="scale(0.996264)"
         xlink:href="#CMSS17-77"
         id="use1418"
         style="stroke-linecap:butt;stroke-linejoin:round"
         x="0"
         y="0"
         width="100%"
         height="100%" />
      <use
         transform="matrix(0.996264,0,0,0.996264,81.67603,0)"
         xlink:href="#CMSS17-101"
         id="use1420"
         style="stroke-linecap:butt;stroke-linejoin:round"
         x="0"
         y="0"
         width="100%"
         height="100%" />
      <use
         transform="matrix(0.996264,0,0,0.996264,123.31485,0)"
         xlink:href="#CMSS17-116"
         id="use1422"
         style="stroke-linecap:butt;stroke-linejoin:round"
         x="0"
         y="0"
         width="100%"
         height="100%" />
      <use
         transform="matrix(0.996264,0,0,0.996264,157.14642,0)"
         xlink:href="#CMSS17-97"
         id="use1424"
         style="stroke-linecap:butt;stroke-linejoin:round"
         x="0"
         y="0"
         width="100%"
         height="100%" />
      <use
         transform="matrix(0.996264,0,0,0.996264,202.06834,0)"
         xlink:href="#CMSS17-45"
         id="use1426"
         style="stroke-linecap:butt;stroke-linejoin:round"
         x="0"
         y="0"
         width="100%"
         height="100%" />
      <use
         transform="matrix(0.996264,0,0,0.996264,233.29745,0)"
         xlink:href="#CMSS17-84"
         id="use1428"
         style="stroke-linecap:butt;stroke-linejoin:round"
         x="0"
         y="0"
         width="100%"
         height="100%" />
      <use
         transform="matrix(0.996264,0,0,0.996264,289.30965,0)"
         xlink:href="#CMSS17-101"
         id="use1430"
         style="stroke-linecap:butt;stroke-linejoin:round"
         x="0"
         y="0"
         width="100%"
         height="100%" />
      <use
         transform="matrix(0.996264,0,0,0.996264,330.94847,0)"
         xlink:href="#CMSS17-115"
         id="use1432"
         style="stroke-linecap:butt;stroke-linejoin:round"
         x="0"
         y="0"
         width="100%"
         height="100%" />
      <use
         transform="matrix(0.996264,0,0,0.996264,366.86201,0)"
         xlink:href="#CMSS17-116"
         id="use1434"
         style="stroke-linecap:butt;stroke-linejoin:round"
         x="0"
         y="0"
         width="100%"
         height="100%" />
    </g>
  </g>
  <defs
     id="defs1445">
    <clipPath
       id="p3fdba2e33e"
       style="stroke-linecap:butt;stroke-linejoin:round">
      <rect
         height="217.44"
         width="334.79999"
         x="57.581608"
         y="26.649565"
         id="rect1442"
         style="stroke-linecap:butt;stroke-linejoin:round" />
    </clipPath>
  </defs>
</svg>
