<?xml version="1.0" encoding="UTF-8" standalone="no"?>
<svg
   xmlns:dc="http://purl.org/dc/elements/1.1/"
   xmlns:cc="http://creativecommons.org/ns#"
   xmlns:rdf="http://www.w3.org/1999/02/22-rdf-syntax-ns#"
   xmlns:svg="http://www.w3.org/2000/svg"
   xmlns="http://www.w3.org/2000/svg"
   xmlns:xlink="http://www.w3.org/1999/xlink"
   xmlns:sodipodi="http://sodipodi.sourceforge.net/DTD/sodipodi-0.dtd"
   xmlns:inkscape="http://www.inkscape.org/namespaces/inkscape"
   height="10.799346pt"
   version="1.1"
   viewBox="0 0 486.65551 10.799346"
   width="486.65549pt"
   id="svg608"
   sodipodi:docname="sample_legend.svg"
   inkscape:version="1.0.1 (0767f8302a, 2020-10-17)">
  <metadata
     id="metadata612">
    <rdf:RDF>
      <cc:Work
         rdf:about="">
        <dc:format>image/svg+xml</dc:format>
        <dc:type
           rdf:resource="http://purl.org/dc/dcmitype/StillImage" />
        <dc:title></dc:title>
      </cc:Work>
    </rdf:RDF>
  </metadata>
  <sodipodi:namedview
     pagecolor="#ffffff"
     bordercolor="#666666"
     borderopacity="1"
     objecttolerance="10"
     gridtolerance="10"
     guidetolerance="10"
     inkscape:pageopacity="0"
     inkscape:pageshadow="2"
     inkscape:window-width="2525"
     inkscape:window-height="1383"
     id="namedview610"
     showgrid="false"
     fit-margin-top="0"
     fit-margin-left="0"
     fit-margin-right="0"
     fit-margin-bottom="0"
     inkscape:zoom="1.305807"
     inkscape:cx="434.68854"
     inkscape:cy="-101.95643"
     inkscape:window-x="35"
     inkscape:window-y="27"
     inkscape:window-maximized="1"
     inkscape:current-layer="svg608" />
  <defs
     id="defs4">
    <style
       type="text/css"
       id="style2">
*{stroke-linecap:butt;stroke-linejoin:round;}
  </style>
  </defs>
  <g
     id="patch_28"
     transform="translate(-13.2,-295.44228)">
    <path
       d="m 13.2,305.94275 h 30 v -10.5 h -30 z"
       style="fill:#db5f57"
       id="path484" />
  </g>
  <g
     id="text_14"
     transform="translate(-13.2,-295.44228)">
    <!-- Meta-MAPG -->
    <defs
       id="defs495">
      <path
         d="m 49.90625,37.046875 -4.8125,-14.03125 C 44.296875,20.421875 41.59375,12.359375 41,9.171875 h -0.09375 c -0.3125,2 -0.90625,4.09375 -2.5,9.171875 C 37.5,21.328125 36.5,24.40625 35.5,27.203125 L 20.703125,69 H 9 V 0 h 7.796875 v 60.9375 h 0.109375 c 0,-0.09375 0.890625,-4.484375 7,-21.890625 L 37.09375,1.5 H 44.5 l 11.90625,33.359375 c 0.796875,2.296875 3.296875,9.5625 4.390625,13.046875 1,2.984375 3.5,10.34375 4.109375,13.234375 H 65 V 0 h 7.90625 V 69 H 61.296875 Z"
         id="CMSS17-77" />
      <path
         d="m 39.09375,21.515625 c 0,3.328125 -0.1875,9.78125 -3.390625,15.125 C 32.203125,42.390625 26.5,44 22.203125,44 11.796875,44 3,34.1875 3,21.484375 3,9.09375 12.09375,-1 23.59375,-1 c 4.5,0 10,1.296875 15,4.875 0,0.40625 -0.1875,2.59375 -0.296875,2.6875 C 38.296875,6.765625 38,9.84375 38,10.25 33.203125,6.359375 27.703125,5.078125 23.703125,5.078125 c -6.40625,0 -13.296875,5.34375 -13.609375,16.4375 z M 10.90625,27 c 1.296875,5.5625 5.6875,10.828125 11.296875,10.828125 1.5,0 8.5,0 10.296875,-10.828125 z"
         id="CMSS17-101" />
      <path
         d="m 16.703125,37 h 13 v 5.765625 h -13 V 55 H 9.59375 V 42.765625 H 1.703125 V 37 H 9.40625 V 11.703125 C 9.40625,6 10.703125,-1 17.296875,-1 c 5,0 9.609375,1.390625 14,3.6875 l -1.59375,5.875 c -2.40625,-2.09375 -5.296875,-3.296875 -8.40625,-3.296875 -4.390625,0 -4.59375,5.609375 -4.59375,8.109375 z"
         id="CMSS17-116" />
      <path
         d="M 37.59375,27.984375 C 37.59375,37.375 30.90625,43.875 21.90625,43.875 17.5,43.875 12.703125,43.078125 7.203125,39.890625 l 0.59375,-6.53125 C 10.296875,35.125 14.59375,38 21.796875,38 26.90625,38 30,34.0625 30,27.84375 V 24 C 14,24 4,19.34375 4,11.34375 4,7.203125 6.5,-1 14.796875,-1 c 1.5,0 9.609375,0 15.40625,4.390625 v -3.6875 H 37.59375 Z M 30,12.75 C 30,10.953125 30,8.5625 27,6.78125 24.40625,5.078125 21.09375,5.078125 19.703125,5.078125 c -5,0 -8.40625,2.90625 -8.40625,6.546875 0,7.296875 15.609375,7.296875 18.703125,7.296875 z"
         id="CMSS17-97" />
      <path
         d="m 26,19 v 5.765625 H 1 V 19 Z"
         id="CMSS17-45" />
      <path
         d="M 35.5,69 H 26.90625 L 2.59375,0 h 7.609375 l 7,20 H 44 L 51.09375,0 h 8.703125 z m 6.59375,-43.421875 h -23 c 4.8125,13.921875 10.8125,31.265625 11.5,35.75 h 0.109375 C 31.40625,57.234375 33.40625,51.265625 35.09375,46.1875 Z"
         id="CMSS17-65" />
      <path
         d="m 32.90625,29 c 12,0 21.796875,9.328125 21.796875,20.34375 0,10.8125 -9.40625,20.234375 -22.40625,20.234375 H 8.90625 V 0 h 8.390625 v 29 z m -2.8125,35 C 41.703125,64 46.796875,56.671875 46.796875,49.328125 46.796875,42.5 42.09375,34.78125 30.09375,34.78125 h -13 V 64 Z"
         id="CMSS17-80" />
      <path
         d="M 56.40625,29 H 36.5 V 22.828125 H 48.796875 V 7.359375 C 44.90625,6.265625 40.90625,5.46875 36.90625,5.46875 c -14,0 -22.3125,14.859375 -22.3125,28.90625 0,13.984375 8.703125,28.625 22.3125,28.625 7.6875,0 12,-2.359375 17.296875,-6.328125 L 55.5,64.59375 C 48.90625,67.984375 44.796875,69.375 37.296875,69.375 17.90625,69.375 6.203125,51.9375 6.203125,34.09375 6.203125,17.03125 18,-1 36.703125,-1 c 7,0 13.5,1.796875 19.703125,4.875 z"
         id="CMSS17-71" />
    </defs>
    <g
       style="fill:#262626"
       transform="matrix(0.15,0,0,-0.15,55.2,305.94275)"
       id="g515">
      <use
         transform="scale(0.996264)"
         xlink:href="#CMSS17-77"
         id="use497"
         x="0"
         y="0"
         width="100%"
         height="100%" />
      <use
         transform="matrix(0.996264,0,0,0.996264,81.67603,0)"
         xlink:href="#CMSS17-101"
         id="use499"
         x="0"
         y="0"
         width="100%"
         height="100%" />
      <use
         transform="matrix(0.996264,0,0,0.996264,123.31485,0)"
         xlink:href="#CMSS17-116"
         id="use501"
         x="0"
         y="0"
         width="100%"
         height="100%" />
      <use
         transform="matrix(0.996264,0,0,0.996264,157.14642,0)"
         xlink:href="#CMSS17-97"
         id="use503"
         x="0"
         y="0"
         width="100%"
         height="100%" />
      <use
         transform="matrix(0.996264,0,0,0.996264,202.06834,0)"
         xlink:href="#CMSS17-45"
         id="use505"
         x="0"
         y="0"
         width="100%"
         height="100%" />
      <use
         transform="matrix(0.996264,0,0,0.996264,233.29745,0)"
         xlink:href="#CMSS17-77"
         id="use507"
         x="0"
         y="0"
         width="100%"
         height="100%" />
      <use
         transform="matrix(0.996264,0,0,0.996264,314.97348,0)"
         xlink:href="#CMSS17-65"
         id="use509"
         x="0"
         y="0"
         width="100%"
         height="100%" />
      <use
         transform="matrix(0.996264,0,0,0.996264,377.19134,0)"
         xlink:href="#CMSS17-80"
         id="use511"
         x="0"
         y="0"
         width="100%"
         height="100%" />
      <use
         transform="matrix(0.996264,0,0,0.996264,436.92692,0)"
         xlink:href="#CMSS17-71"
         id="use513"
         x="0"
         y="0"
         width="100%"
         height="100%" />
    </g>
  </g>
  <g
     id="patch_29"
     transform="translate(-13.2,-295.44228)">
    <path
       d="m 145.40781,305.94275 h 30 v -10.5 h -30 z"
       style="fill:#57db80"
       id="path518" />
  </g>
  <g
     id="text_15"
     transform="translate(-13.2,-295.44228)">
    <!-- Meta-PG -->
    <g
       style="fill:#262626"
       transform="matrix(0.15,0,0,-0.15,187.40781,305.94275)"
       id="g535">
      <use
         transform="scale(0.996264)"
         xlink:href="#CMSS17-77"
         id="use521"
         x="0"
         y="0"
         width="100%"
         height="100%" />
      <use
         transform="matrix(0.996264,0,0,0.996264,81.67603,0)"
         xlink:href="#CMSS17-101"
         id="use523"
         x="0"
         y="0"
         width="100%"
         height="100%" />
      <use
         transform="matrix(0.996264,0,0,0.996264,123.31485,0)"
         xlink:href="#CMSS17-116"
         id="use525"
         x="0"
         y="0"
         width="100%"
         height="100%" />
      <use
         transform="matrix(0.996264,0,0,0.996264,157.14642,0)"
         xlink:href="#CMSS17-97"
         id="use527"
         x="0"
         y="0"
         width="100%"
         height="100%" />
      <use
         transform="matrix(0.996264,0,0,0.996264,202.06834,0)"
         xlink:href="#CMSS17-45"
         id="use529"
         x="0"
         y="0"
         width="100%"
         height="100%" />
      <use
         transform="matrix(0.996264,0,0,0.996264,233.29745,0)"
         xlink:href="#CMSS17-80"
         id="use531"
         x="0"
         y="0"
         width="100%"
         height="100%" />
      <use
         transform="matrix(0.996264,0,0,0.996264,293.03304,0)"
         xlink:href="#CMSS17-71"
         id="use533"
         x="0"
         y="0"
         width="100%"
         height="100%" />
    </g>
  </g>
  <g
     id="patch_30"
     transform="translate(-13.2,-295.44228)">
    <path
       d="m 255.25182,305.94275 h 30 v -10.5 h -30 z"
       style="fill:#5770db"
       id="path538" />
  </g>
  <g
     id="text_16"
     transform="translate(-13.2,-295.44228)">
    <!-- LOLA-DiCE -->
    <defs
       id="defs547">
      <path
         d="m 26.09375,6.46875 c -1.1875,0 -2.390625,0 -3.59375,0 H 17.203125 V 69 H 8.796875 V 0 H 46.90625 v 6.46875 z"
         id="CMSS17-76" />
      <path
         d="m 64,34.03125 c 0,20.703125 -13.703125,36.234375 -29.40625,36.234375 -15.6875,0 -29.390625,-15.625 -29.390625,-36.234375 C 5.203125,13.234375 19.09375,-2 34.59375,-2 50.09375,-2 64,13.234375 64,34.03125 Z M 34.59375,4.265625 c -11,0 -21,12.25 -21,31.0625 0,18.3125 10.609375,28.671875 21,28.671875 10.40625,0 21,-10.359375 21,-28.671875 0,-18.90625 -10.09375,-31.0625 -21,-31.0625 z"
         id="CMSS17-79" />
      <path
         d="M 8.90625,69 V 0 H 33.5 c 16.40625,0 29,15.3125 29,33.90625 C 62.5,53.09375 49.90625,69 33.5,69 Z m 8.1875,-63.421875 v 57.84375 h 14.203125 c 13.40625,0 23,-12.21875 23,-29.515625 0,-16.609375 -9.5,-28.328125 -23,-28.328125 z"
         id="CMSS17-68" />
      <path
         d="M 15.296875,65.359375 H 6.90625 V 57 h 8.390625 z m -0.5,-22.5625 H 7.40625 V 0 h 7.390625 z"
         id="CMSS17-105" />
      <path
         d="M 54.703125,11.15625 C 48,6.671875 44.90625,5.375 36.796875,5.375 c -14,0 -22.203125,14.984375 -22.203125,28.671875 C 14.59375,48.625 23,63 37.203125,63 43.59375,63 47.796875,61.21875 52.90625,58.046875 l 1.390625,7.84375 C 49.5,68.28125 43.40625,69.375 37.296875,69.375 18.09375,69.375 6.203125,51.8125 6.203125,34.046875 6.203125,14.484375 20.296875,-1 36.296875,-1 c 8.609375,0 11.609375,0.703125 19,5.375 z"
         id="CMSS17-67" />
      <path
         d="m 30.59375,6.765625 c -8,0 -11.59375,0 -13.390625,0 v 26.15625 h 31 V 39 h -31 V 62.640625 H 30.09375 c 1.203125,0 2.40625,0 3.609375,0 h 17.09375 V 69 h -42 V 0 H 52.09375 v 6.765625 z"
         id="CMSS17-69" />
    </defs>
    <g
       style="fill:#262626"
       transform="matrix(0.15,0,0,-0.15,297.25182,305.94275)"
       id="g567">
      <use
         transform="scale(0.996264)"
         xlink:href="#CMSS17-76"
         id="use549"
         x="0"
         y="0"
         width="100%"
         height="100%" />
      <use
         transform="matrix(0.996264,0,0,0.996264,50.687105,0)"
         xlink:href="#CMSS17-79"
         id="use551"
         x="0"
         y="0"
         width="100%"
         height="100%" />
      <use
         transform="matrix(0.996264,0,0,0.996264,119.71136,0)"
         xlink:href="#CMSS17-76"
         id="use553"
         x="0"
         y="0"
         width="100%"
         height="100%" />
      <use
         transform="matrix(0.996264,0,0,0.996264,170.39847,0)"
         xlink:href="#CMSS17-65"
         id="use555"
         x="0"
         y="0"
         width="100%"
         height="100%" />
      <use
         transform="matrix(0.996264,0,0,0.996264,232.61632,0)"
         xlink:href="#CMSS17-45"
         id="use557"
         x="0"
         y="0"
         width="100%"
         height="100%" />
      <use
         transform="matrix(0.996264,0,0,0.996264,263.84543,0)"
         xlink:href="#CMSS17-68"
         id="use559"
         x="0"
         y="0"
         width="100%"
         height="100%" />
      <use
         transform="matrix(0.996264,0,0,0.996264,331.38828,0)"
         xlink:href="#CMSS17-105"
         id="use561"
         x="0"
         y="0"
         width="100%"
         height="100%" />
      <use
         transform="matrix(0.996264,0,0,0.996264,353.569,0)"
         xlink:href="#CMSS17-67"
         id="use563"
         x="0"
         y="0"
         width="100%"
         height="100%" />
      <use
         transform="matrix(0.996264,0,0,0.996264,413.42477,0)"
         xlink:href="#CMSS17-69"
         id="use565"
         x="0"
         y="0"
         width="100%"
         height="100%" />
    </g>
  </g>
  <g
     id="patch_31"
     transform="translate(-13.2,-295.44228)">
    <path
       d="m 382.85009,305.94275 h 30 v -10.5 h -30 z"
       style="fill:#a157db"
       id="path570" />
  </g>
  <g
     id="text_17"
     transform="translate(-13.2,-295.44228)">
    <!-- REINFORCE -->
    <defs
       id="defs577">
      <path
         d="m 39.40625,32.953125 0.1875,0.09375 c 15.609375,5.375 15.703125,16.125 15.703125,18.015625 0,9.453125 -9.59375,18.515625 -24,18.515625 H 8.90625 V 0.5 h 8.1875 V 32 H 31.796875 L 49.5,0.5 h 8.40625 z m -22.3125,5.125 V 64 H 30.203125 C 42.90625,64 47.40625,56.828125 47.40625,51.046875 c 0,-5.390625 -4,-12.96875 -17.203125,-12.96875 z"
         id="CMSS17-82" />
      <path
         d="M 17.09375,69 H 8.703125 V 0 h 8.390625 z"
         id="CMSS17-73" />
      <path
         d="M 22.90625,65.3125 21.09375,69 H 8.796875 V 0 h 7.796875 v 61.34375 l 0.109375,0.09375 C 17.40625,59.640625 17.796875,58.75 21.90625,49.90625 L 43.296875,3.6875 45.09375,0 h 12.3125 v 69 h -7.8125 V 7.65625 L 49.5,7.546875 c -0.703125,1.796875 -1.09375,2.6875 -5.203125,11.53125 z"
         id="CMSS17-78" />
      <path
         d="m 45.59375,31 v 6.078125 H 17.203125 V 62 H 29.40625 c 1.1875,0 2.390625,0 3.59375,0 h 16.5 v 6.359375 H 8.796875 V -0.5 h 8.40625 V 31 Z"
         id="CMSS17-70" />
    </defs>
    <g
       style="fill:#262626"
       transform="matrix(0.15,0,0,-0.15,424.85009,305.94275)"
       id="g597">
      <use
         transform="scale(0.996264)"
         xlink:href="#CMSS17-82"
         id="use579"
         x="0"
         y="0"
         width="100%"
         height="100%" />
      <use
         transform="matrix(0.996264,0,0,0.996264,60.416155,0)"
         xlink:href="#CMSS17-69"
         id="use581"
         x="0"
         y="0"
         width="100%"
         height="100%" />
      <use
         transform="matrix(0.996264,0,0,0.996264,116.30817,0)"
         xlink:href="#CMSS17-73"
         id="use583"
         x="0"
         y="0"
         width="100%"
         height="100%" />
      <use
         transform="matrix(0.996264,0,0,0.996264,142.09209,0)"
         xlink:href="#CMSS17-78"
         id="use585"
         x="0"
         y="0"
         width="100%"
         height="100%" />
      <use
         transform="matrix(0.996264,0,0,0.996264,208.15361,0)"
         xlink:href="#CMSS17-70"
         id="use587"
         x="0"
         y="0"
         width="100%"
         height="100%" />
      <use
         transform="matrix(0.996264,0,0,0.996264,258.84072,0)"
         xlink:href="#CMSS17-79"
         id="use589"
         x="0"
         y="0"
         width="100%"
         height="100%" />
      <use
         transform="matrix(0.996264,0,0,0.996264,327.86497,0)"
         xlink:href="#CMSS17-82"
         id="use591"
         x="0"
         y="0"
         width="100%"
         height="100%" />
      <use
         transform="matrix(0.996264,0,0,0.996264,388.28113,0)"
         xlink:href="#CMSS17-67"
         id="use593"
         x="0"
         y="0"
         width="100%"
         height="100%" />
      <use
         transform="matrix(0.996264,0,0,0.996264,448.1369,0)"
         xlink:href="#CMSS17-69"
         id="use595"
         x="0"
         y="0"
         width="100%"
         height="100%" />
    </g>
  </g>
  <defs
     id="defs606">
    <clipPath
       id="p2e4685764d">
      <rect
         height="217.44"
         width="334.79999"
         x="90.900002"
         y="25.653299"
         id="rect603" />
    </clipPath>
  </defs>
</svg>
